<?xml version="1.0" encoding="utf-8"?>
<!-- Generator: Adobe Illustrator 21.1.0, SVG Export Plug-In . SVG Version: 6.00 Build 0)  -->
<svg version="1.1" id="Calque_1" xmlns="http://www.w3.org/2000/svg" xmlns:xlink="http://www.w3.org/1999/xlink" x="0px" y="0px"
	 viewBox="0 0 2331 422" style="enable-background:new 0 0 2331 422;" xml:space="preserve">
<style type="text/css">
	.st0{fill:#FED9CB;}
	.st1{fill:#E7E746;}
	.st2{fill:#F46B62;}
	.st3{fill:#FE9982;}
	.st4{fill:#AB1D45;}
	.st5{fill:#D1DC37;}
	.st6{fill:#FEC819;}
	.st7{fill:#B1CD3A;}
	.st8{fill:#DA8831;}
	.st9{fill:#E49A46;}
	.st10{fill:#DA8327;}
	.st11{fill:#E49232;}
	.st12{fill:#D07E2E;}
	.st13{fill:#A0AC31;}
	.st14{fill:#EEAF53;}
	.st15{fill:#FEDC36;}
	.st16{fill:#E28E2F;}
	.st17{fill:#A1AC31;}
	.st18{fill:#912A37;}
	.st19{fill:#E4283A;}
	.st20{fill:#C5DA2A;}
	.st21{fill:#3D9944;}
	.st22{fill:#35703E;}
	.st23{fill:#CB7931;}
	.st24{fill:#DA8931;}
	.st25{fill:#E6AA61;}
	.st26{fill:#76B554;}
	.st27{fill:#C61633;}
	.st28{fill:#B5DA95;}
	.st29{fill:#A0CE84;}
	.st30{fill:#A2CF85;}
	.st31{fill:#E5A55D;}
	.st32{fill:#B7DB96;}
	.st33{fill:#8ED66D;}
	.st34{fill:#37713F;}
	.st35{fill:#439C49;}
	.st36{fill:#EAAF62;}
	.st37{fill:#9FCD83;}
	.st38{fill:#3F9945;}
	.st39{fill:#77B656;}
	.st40{fill:#84BC5D;}
	.st41{fill:#54A447;}
	.st42{fill:#A2CF86;}
	.st43{fill:#3F9A45;}
	.st44{fill:#EFB35C;}
	.st45{fill:#8CD36A;}
	.st46{fill:#C5D82E;}
	.st47{fill:#53A246;}
	.st48{fill:#92D66F;}
	.st49{fill:#664026;}
	.st50{fill:#3A8628;}
	.st51{fill:#E6A965;}
	.st52{fill:#E7A459;}
	.st53{fill:#DE9953;}
	.st54{fill:#84BB5D;}
	.st55{fill:#81BA5A;}
	.st56{fill:#87BD62;}
	.st57{fill:#EF4A5B;}
	.st58{fill:#4A9F4F;}
	.st59{fill:#E69D47;}
	.st60{fill:#DB9653;}
	.st61{fill:#51A34F;}
	.st62{fill:#C33457;}
	.st63{fill:#ACC036;}
	.st64{fill:#92BC62;}
	.st65{fill:#64A341;}
	.st66{fill:#D2F93C;}
	.st67{fill:#478228;}
	.st68{fill:#922B38;}
	.st69{fill:#E5E265;}
	.st70{fill:#C1CC29;}
	.st71{fill:#D2D24D;}
	.st72{fill:#A1AC32;}
	.st73{fill:#9E7947;}
	.st74{fill:#AFBC31;}
	.st75{fill:#C1CC2B;}
	.st76{fill:#8C6B9B;}
	.st77{fill:#916EA0;}
	.st78{fill:#9573A3;}
	.st79{fill:#E8D3D6;}
	.st80{fill:#FEB4A8;}
	.st81{fill:#EE4743;}
	.st82{fill:#FEE7C7;}
	.st83{fill:#FE6464;}
	.st84{fill:#FEFE8B;}
	.st85{fill:#CC3632;}
	.st86{fill:#E7A85F;}
	.st87{fill:#CEE04C;}
	.st88{fill:#F3665D;}
	.st89{fill:#F3675E;}
	.st90{fill:#F3665C;}
	.st91{fill:#F3655C;}
	.st92{fill:#F3645B;}
	.st93{fill:#F3635A;}
	.st94{fill:#F6AD3F;}
	.st95{fill:#B38596;}
	.st96{fill:#F06055;}
	.st97{fill:#FEFEFE;}
	.st98{fill:#259637;}
	.st99{fill:#F24A63;}
	.st100{fill:#308940;}
	.st101{fill:#EF475A;}
	.st102{fill:#EE475A;}
	.st103{fill:#EF485A;}
	.st104{fill:#F15655;}
	.st105{fill:#DE9C57;}
	.st106{fill:#E29846;}
	.st107{fill:#EE4659;}
	.st108{fill:#87B45B;}
	.st109{fill:#D99451;}
	.st110{fill:#E1913A;}
	.st111{fill:#BFD89D;}
	.st112{fill:#F8CB7C;}
	.st113{fill:#F7C67B;}
	.st114{fill:#AC1E47;}
	.st115{fill:#AD1E47;}
	.st116{fill:#CC758E;}
	.st117{fill:#D2F63C;}
	.st118{fill:#E4E164;}
	.st119{fill:#D6CC56;}
	.st120{fill:#711425;}
	.st121{fill:#862A2E;}
	.st122{fill:#7B1329;}
	.st123{fill:#C1CD28;}
	.st124{fill:#912937;}
	.st125{fill:#C1CA29;}
	.st126{fill:#A0AA31;}
	.st127{fill:#A2AC34;}
	.st128{fill:#ADBE38;}
	.st129{fill:#BFC629;}
	.st130{fill:#9E8833;}
	.st131{fill:#A25937;}
	.st132{fill:#9C4837;}
	.st133{fill:#BCA037;}
	.st134{fill:#994037;}
	.st135{fill:#954E35;}
	.st136{fill:#9D4A37;}
	.st137{fill:#A56137;}
	.st138{fill:#F8AB00;}
	.st139{fill:#954437;}
	.st140{fill:#9FA033;}
	.st141{fill:#995438;}
	.st142{fill:#995338;}
	.st143{fill:#A48E39;}
	.st144{fill:#975137;}
	.st145{fill:#A89F39;}
	.st146{fill:#9B5C38;}
	.st147{fill:#9E6F38;}
	.st148{fill:#E5A35B;}
	.st149{fill:#E7A353;}
	.st150{fill:#E29E53;}
	.st151{fill:#DF9E54;}
	.st152{fill:#944735;}
	.st153{fill:#986A34;}
	.st154{fill:#913037;}
	.st155{fill:#E5A356;}
	.st156{fill:#D58A45;}
	.st157{fill:#C2D02C;}
	.st158{fill:#C1CC30;}
	.st159{fill:#9E5534;}
	.st160{fill:#A16033;}
	.st161{fill:#9B4B34;}
	.st162{fill:#6BB543;}
	.st163{fill:#F7D079;}
	.st164{fill:#F7D27A;}
	.st165{fill:#F8DA7E;}
	.st166{fill:#ECD174;}
	.st167{fill:#F8DD7E;}
	.st168{fill:#F9E280;}
	.st169{fill:#F8DC7E;}
	.st170{fill:#A0CD83;}
	.st171{fill:#AAD18E;}
	.st172{fill:#EFB96E;}
	.st173{fill:#EAC871;}
	.st174{fill:#308E38;}
	.st175{fill:#83BB5A;}
	.st176{fill:#539E45;}
	.st177{fill:#84BC5C;}
	.st178{fill:#75B554;}
	.st179{fill:#3E9944;}
	.st180{fill:#429B48;}
	.st181{fill:#EEA73E;}
	.st182{fill:#DA8427;}
	.st183{fill:#EFAB48;}
	.st184{fill:#529E44;}
	.st185{fill:#398427;}
	.st186{fill:#E7A85C;}
	.st187{fill:#E5E264;}
	.st188{fill:#A0A931;}
	.st189{fill:#9E7036;}
	.st190{fill:#9A5C37;}
	.st191{fill:#985337;}
	.st192{fill:#986635;}
	.st193{fill:#A59636;}
	.st194{fill:#B9B22B;}
	.st195{fill:#C0C829;}
	.st196{fill:#A3513B;}
	.st197{fill:#994734;}
	.st198{fill:#AC643B;}
	.st199{fill:#C5E987;}
	.st200{fill:#67A242;}
	.st201{fill:#BADF7E;}
	.st202{fill:#6DA947;}
	.st203{fill:#B4DA7A;}
	.st204{fill:#A5CE70;}
	.st205{fill:#933F36;}
	.st206{fill:#C5E886;}
	.st207{fill:#88522A;}
	.st208{fill:#B8DE7D;}
	.st209{fill:#8ABE5C;}
	.st210{fill:#A3D16E;}
	.st211{fill:#AFBE32;}
	.st212{fill:#CDE149;}
	.st213{fill:#95C262;}
	.st214{fill:#9D5233;}
	.st215{fill:#A46A31;}
	.st216{fill:#AFBD31;}
	.st217{fill:#D2F83C;}
	.st218{fill:#66A342;}
	.st219{fill:#89538E;}
	.st220{fill:#70A94C;}
	.st221{fill:#E3E263;}
	.st222{fill:#F15755;}
	.st223{fill:#F15756;}
	.st224{fill:#F25756;}
	.st225{fill:#F15554;}
	.st226{fill:#B1BF33;}
	.st227{fill:#F9C49F;}
	.st228{fill:#F8BE9B;}
	.st229{fill:#F5C6A0;}
	.st230{fill:#FBAD42;}
	.st231{fill:#F9C6A1;}
	.st232{fill:#FBDFB3;}
	.st233{fill:#F5C29D;}
	.st234{fill:#FAD0A8;}
	.st235{fill:#FCB942;}
	.st236{fill:#F9C9A3;}
	.st237{fill:#FDBB42;}
	.st238{fill:#FAD5AC;}
	.st239{fill:#804872;}
	.st240{fill:#8E5B8E;}
	.st241{fill:#FBC8A4;}
	.st242{fill:#FBC9A5;}
	.st243{fill:#FCC7A4;}
	.st244{fill:#FEC242;}
	.st245{fill:#FBDBB0;}
	.st246{fill:#B5DA27;}
	.st247{fill:#D1F53D;}
	.st248{fill:#F8D4AB;}
	.st249{fill:#F9D7AD;}
	.st250{fill:#B4C03A;}
	.st251{fill:#DFD18C;}
	.st252{fill:#E5A040;}
	.st253{fill:#3B723C;}
	.st254{fill:#B0D891;}
	.st255{fill:#82BA5A;}
	.st256{fill:#B6DA97;}
	.st257{fill:#B6DA95;}
	.st258{fill:#31893F;}
	.st259{fill:#83BB5C;}
	.st260{fill:#84BB5E;}
	.st261{fill:#80B95B;}
	.st262{fill:#438F3D;}
	.st263{fill:#FCD89C;}
	.st264{fill:#FDE09F;}
	.st265{fill:#E7A037;}
	.st266{fill:#D2F63E;}
	.st267{fill:#B6DA28;}
	.st268{fill:#973F35;}
	.st269{fill:#984235;}
	.st270{fill:#9F5932;}
	.st271{fill:#A05D32;}
	.st272{fill:#318F39;}
	.st273{fill:#B6DA27;}
	.st274{fill:#CEE049;}
	.st275{fill:#6AA544;}
	.st276{fill:#4D872B;}
	.st277{fill:#51882E;}
	.st278{fill:#F3F08A;}
	.st279{fill:#D2F93D;}
	.st280{fill:#81B856;}
</style>
<path class="st0" d="M-0.5,248.5c5-0.7,10.2,1.3,15.1-1.1c1.1,0.1,1.7-0.8,2.6-1.2c1.9,0.9,3.9,0.8,5.9,0.6c8.7,0.2,17.4,0.8,26-0.3
	c1.2-0.5,2.4-0.9,3.7-0.2c1.5,1,3.1,1,4.8,0.9c0.5,0,1,0,1.5,0c4.4-0.7,8.9-0.2,13.3-0.3c1.6,0.1,3.2,0.3,4.7,0.3
	c1.2,0,2.3,0,3.5-0.1c14.8,0.1,29.6,0.1,44.4,0.1c3.9,0.1,7.8-0.6,11.6,0.7c2.4,2.5,0.1,3.8-1.4,5.4c-4.1,0.8-5.9,3.4-5.7,7.5
	c-1.6,3.3-3.1,6.7-6.5,8.6c-7,0.4-7.7,1.3-5.8,7.7c-1.1,4-3,7.3-7.3,8.5c-0.7,0-1.3-0.2-2-0.2c-4.6-0.3-5.9,1.4-3.9,5.5
	c0.4,0.9,1.1,1.7,1.2,2.7c-0.3,2.3-1.7,3.5-3.8,4.2c-6,0.7-11.9,0.3-17.9,0.3c-20.7,0.1-41.4,0-62.2,0c-2.3,0-4.6,0.2-6.9-0.3
	c-0.6-0.2-1.2-0.6-1.7-1c-4.4,0-8.8,0-13.2,0c0-1.3,0-2.7,0-4c3-3,3-6,0-9c0-7,0-14,0-21c2.8-3.3,2.6-6.7,0-10
	C-0.5,251.1-0.5,249.8-0.5,248.5z"/>
<path class="st1" d="M161.5,35.5c1.3-1,2.5-2.5,4-2.9c6.2-1.6,5.6-5.3,4-10.1c-2.5-7.5,0.4-14,7.6-18.5c2.1-1.3,4.7-1.6,6.4-3.6
	c3.3,0,6.7,0,10,0c5.9,2.9,8,7.8,7.8,14.1c-2,6-6.7,10.2-10.1,15.2c-5.6,8.2-11.7,16.1-17.6,24.1c-2.2,3-4.3,6.3-8.4,7.3
	c-4.6-0.8-6.2-4.5-7.7-8.3c-0.7-4.3-0.6-8.5,0.7-12.7C158.8,38.2,159.3,36.3,161.5,35.5z"/>
<path class="st2" d="M-0.5,283.5c2.8,0.2,3.7,2.3,3.7,4.4c0,2.2-1.1,4.2-3.7,4.6C-0.5,289.5-0.5,286.5-0.5,283.5z"/>
<path class="st2" d="M-0.5,252.5c5.2,4,5.2,6.1,0,10C-0.5,259.1-0.5,255.8-0.5,252.5z"/>
<path class="st3" d="M387.3,277.4c0.1,5.1-0.1,10.3,0.2,15.4c0.2,3.2-1.3,3.8-4.1,3.8c-9,0.1-9,0.2-9,9.2c0,9.6,0,19.2-0.1,28.9
	c0,1.9,0.4,4-0.8,5.8c-2.9-3.6-1.3-7.8-1.6-11.7c0-0.6,0-1.2,0-1.8c-0.2-7.8,0-15.5-0.1-23.3c-0.1-5.1-0.5-5.6-5.8-5.6
	c-7.3-0.1-14.5,0.1-21.8-0.1c-14.1-0.1-28.2,0-42.2,0c-0.6,0-1.3,0-1.9,0c-13.6,0.2-27.2,0.2-40.7,0c-0.6,0-1.2-0.1-1.8-0.1
	c-3.7-0.1-7.4,0.4-11-0.5c-3.3-2.1-0.4-3.8,0.6-5.2c5.7-8.1,11.6-16.1,17.5-24.1c1.4-1.9,2.8-3.7,3.7-5.8c0.9-1.7,2-3.3,3.4-4.6
	c3.6-2.8,5-7.6,9.1-10c1-0.4,2-0.5,3-0.5c3.7-0.1,7.3,0.1,10.9-0.3c2,0,4.1,0,6.1,0c4.7,0.5,9.3,0.3,14,0c1.3,0.1,2.6,0.3,3.9,0.3
	c1.8,0,3.7,0.1,5.5,0c1.3,0,2.7,0,4,0c1.1,0,2.1,0,3.2,0c1.1,0,2.2,0,3.3,0c2.5-0.1,4.9-0.1,7.4,0c1.1,0,2.2,0,3.2,0
	c4,0.2,7.8-0.2,11.7-1.1c3.4,1,6.8,1.8,10.3,0.5c2.1-0.8,3,0.7,4.1,1.9c4,0,8,0.1,11.9-0.1c3.4-0.2,4.2,1.2,4.1,4.3
	c-0.2,5.3-0.1,10.6-0.2,15.9C384,271.4,385,274.4,387.3,277.4z"/>
<path class="st4" d="M207.4,176.5c7.5,1.8,15.2,3,21.9,7.3c0.3,1.3-0.4,2.3-1.1,3.1c-6.4,6.6-7.2,14.4-5.2,23
	c1.5,6.6,4.2,12.5,7.6,18.2c2.9,4.8,5.5,9.8,6.5,15.4c0.4,2.1,1,4.3-1.4,5.7c-11.2,1.3-22.5,0.8-33.7,0.3c-3.5-0.9-3.3-5.2-6-6.8
	c-1.2-0.8-2.7-1.1-3.7-2.3c-0.5-2.1,0.3-3.8,1.7-5.3c0.5-0.5,1.8-0.6,1.6-1.3c-0.3-0.7-1.7-0.6-2.5-1c-2.7-2-5.5-3.4-9.1-2.7
	c-1.1,0.2-2.3,0-2.8-1.4c1.1-3.7,3.4-7.6-1.2-10.7c-1.7-1.2-3.7-1.3-5.6-2c-1.9-1.2-1-2.7-0.1-3.8c8.6-11.4,16-23.8,25.2-34.8
	c0.3-0.4,0.8-0.6,1.2-0.8C202.9,176.2,205.1,175.6,207.4,176.5z"/>
<path class="st5" d="M165.5,60.5c7.9-6.1,12.3-15,18.3-22.6c6-7.6,11.7-15.5,17.5-23.3c2.4,3,5.9,2.1,8.8,1.8
	c10.4-1,12.1,5.7,11.9,13c-0.2,7-3.1,13.2-8.2,18.2c-5.2,5.1-5.1,5.1,1.6,7.9c0.1,0.2,0.2,0.4,0.3,0.7c-4.4,7.6-9.5,14.7-15.3,21.3
	c-1,0.6-1.8,1.4-2.8,2c-2.8,1.7-4.8,0.9-5.3-2.4c-0.7-4.6-1-9.3-2.7-13.8c-0.1-1.3-0.3-2.7-0.7-3.9c-0.1,0,0-0.2-0.2-0.2
	c0.1,0.3,0.2,0.6,0.3,0.9c0.6,1.5,0.3,3.1,1,4.5c0.3,0.7,0.2,1.3-0.1,1.9c-0.9,1.2-2.1,0.2-3.2,0.4c1.4,0.2,2.3,0.9,3.1,1.8
	c0.9,1,1.5,2.1,1.7,3.4c0.7,4.2-0.6,5.3-5,4.4c-1.5-0.7-2.9-1.4-4.3-2.8c1.2,1.3,2.5,2,3.8,2.7c3.3,1.5,6.8,2.8,6.9,7.3
	c0,1.9,0.3,4.1-1.8,5.3c-1.9,1-3.4-0.2-4.9-1.4c-0.4-0.4-0.7-0.8-1.1-1.2c-0.4-0.5-0.8,0.6-0.2,0.3c0.6-0.3,0.7,0.8,0.4,0.2
	c1.2,1.5,3.3,2.1,3.9,4c0.6,3.3-1.8,5.1-3.7,7.1c-0.7,0.5-1.5,1-1.9,1.8c-1.6,2.4-2.5,5.5-5.9,6.4c-1,0-1.9-0.4-2.7-0.9
	c-2.7-1.7-5.1-3.7-6.2-6.8c-0.4-1.2-0.4-2.4-0.1-3.6c0.3-0.9,0.7-1.8,1.1-2.6c1.4-1.9,0.9-3.2-1.1-4.3c-1.6-0.8-3.4-1.2-4.8-2.3
	c-6-7.3-6.2-9.3-0.6-16.9C165.3,66.1,165.8,63.5,165.5,60.5z"/>
<path class="st6" d="M236.6,248.2c-0.5-7.2-4.1-13.4-7-19.7c0.5-2.9,2.5-5,4.1-7.2c8.1-11.5,17.6-21.9,25.3-33.7
	c1.4-2.1,3.3-3.7,5.5-4.9c6-2.6,12.2-3.9,18.7-2.8c5.5,0.1,8.9,3.6,11.8,7.7c0.1,0.5,0.1,1,0.1,1.5c-4.4,8-10.1,15.2-15.4,22.6
	c-7.3,10.3-14.7,20.5-22.3,30.6c-0.8,1-1.9,1.9-1.5,3.9c6.5,0.3,13.1,0,19.7,0.2c2.5,0.1,5-0.4,7.3,0.8c0.4,0.3,0.6,0.8,0.4,1.3
	c-1,0.1-1.9,0.2-2.9,0.2c-2,1.3-4.3,1.5-6.7,1.5c-10.3,0-20.5,0-30.8,0C240.7,250,238.2,250.4,236.6,248.2z"/>
<path class="st7" d="M215.4,55.4c1.8-3.9,5.1-6,9-7.3c3.3-1.1,4.6-3,2.7-6.4c-2.9-5.1-1.4-9.7,2-13.7c3.7-4.3,9-5.4,13.6-2.9
	c5.5,3,10.2,2.7,15.8,0.9c4.6-1.5,9.4-1.3,11.6,4.4c-8.3,12.3-17.5,24.1-26.2,36.2c-0.4,0.5-1,0.9-1.6,1.1c-1.5-0.2-1.7-1.3-1.4-2.5
	c0-0.4,0.5-1,0.2-1.1c-0.6-0.3,0.2-0.3-0.1,0.3c-0.3,0.9-0.5,1.8-1,2.6c-1.6,1.3-2.4,0.1-3.1-1c-0.5-0.9-0.8-1.8-1.1-2.7
	c-0.1,0.2,0.1,0.3,0.1,0.5c0.3,1,0.6,1.9,1.1,2.8c1.4,1.9,2.8,3.7,1.6,6.2c-0.6,1.6-1.5,3.5-3.2,3c-3.2-1.1-1.8,0.5-1.3,1.7
	c-0.1,3.2-1.4,5.6-4.7,6.6c-0.4,0-0.8-0.1-1.2-0.2c-0.3-0.1-0.5-0.3-0.7-0.5c-0.1,0.5,0.3,0.9,0.5,1.3c0.1,0.4,0.2,0.8,0.2,1.3
	c-0.5,3.1-2.2,5.6-4.5,7.7c-2.2-0.5-1.6,1.1-1.7,2.2c-2.3,3.5-4,7.6-7.8,9.9c-3.1-1.2-4.2-3.9-5.2-6.7c0.3-1.4,1.4-2.2,2.3-3.2
	c3-3.3,3.5-7,1.5-11c-1-1.9-2.2-3.9-0.2-5.9c3.3-1.4,6.7-2.8,8.3-6.5c0.9-2,1-3.8-1.9-4.2c-0.2-4.5-0.5-9-3.5-12.7L215.4,55.4z"/>
<path class="st8" d="M128.4,409.3c-14,0-27.9,0-41.9,0c-1.5-1.4-1.4-3.3-1.4-5.1c0-9.3-0.1-18.6,0-27.9c0.1-5.2,1-6.2,6.2-6.2
	c10.8-0.1,21.6-0.1,32.4,0c5.1,0.1,6.1,1,6.2,6.2c0.1,9.3,0.1,18.6,0,27.9C129.9,406,129.9,407.9,128.4,409.3z"/>
<path class="st9" d="M171.5,409.3c-14,0-28,0-41.9,0c-1.1-7.2-0.4-14.5-0.5-21.7c-0.1-5.4-0.5-10.9,0.3-16.3
	c1.2-1.1,2.7-1.2,4.2-1.2c11.3-0.1,22.5-0.1,33.8,0c1.5,0,3,0.1,4.3,1.1c1.3,1.5,1.2,3.4,1.2,5.2c0,9.3,0,18.6,0,27.9
	C172.9,406,172.9,407.9,171.5,409.3z"/>
<path class="st10" d="M214.4,409.3c-14,0-27.9,0-41.9,0c-1.2-5.9-0.5-11.8-0.5-17.7c0-6.8-0.5-13.5,0.3-20.3
	c1.2-1.1,2.7-1.2,4.2-1.2c11.3-0.1,22.5-0.1,33.8,0c1.5,0,3,0.1,4.3,1.1c1.2,1.4,1.2,3,1.2,4.7c0.1,9.6,0.1,19.2,0,28.9
	C215.9,406.4,215.8,408,214.4,409.3z"/>
<path class="st11" d="M257.4,409.3c-14,0-27.9,0-41.9,0c-1.2-6.9-0.4-13.8-0.5-20.7c-0.1-5.8-0.5-11.5,0.3-17.3
	c1.2-1.1,2.7-1.2,4.2-1.2c11.3-0.1,22.5-0.1,33.8,0c1.5,0,3,0.1,4.3,1.1c1.1,1.2,1.2,2.7,1.2,4.2c0.1,9.9,0.1,19.9,0,29.8
	C258.8,406.7,258.6,408.2,257.4,409.3z"/>
<path class="st12" d="M300.4,409.3c-14,0-27.9,0-41.9,0c-1.2-6.5-0.4-13.1-0.5-19.7c-0.1-6.1-0.5-12.2,0.3-18.3
	c1.3-1.2,3-1.2,4.7-1.2c10.9-0.1,21.8-0.1,32.8,0c1.7,0,3.3,0,4.7,1.2c1.2,1.3,1.3,3,1.3,4.6c0.1,9.6,0.1,19.2,0,28.8
	C301.8,406.3,301.8,408,300.4,409.3z"/>
<path class="st13" d="M242.5,67.5c8-12.5,17.5-24,25.9-36.2c0.3-0.4,1.2-0.5,1.8-0.8c3,7.9,3.4,15.2-3.9,21.2
	c-1.3,1.1-2.4,2.5-0.8,4.7c4.7,6.2,2.4,13.9-4.7,16.9c-2.4,1-6.2,0.5-6.8,3.3c-0.6,2.7,3.4,3,5,4.9c2.9,3.3,3.2,6.8,1.4,10.6
	c-2.4,5.1-6.2,9.2-10.9,12c-8.8,5.3-17.3,11.1-25.8,16.9c-1.5-1.5-0.6-3.1,0-4.6c1.1-3.1,2.5-6.2,3.1-9.4c1.3-6,4.4-9.4,10.8-9.3
	c0.6,0,1.3-0.1,1.9-0.1c-6.3,0.3-6.3,0.3-7.9-3.2c0.3-4.8,2.9-7.4,7.7-7.7c1.5-0.1,2.8-0.9,4.2-1.3c0.5-0.2,1.1-0.3,1.5-0.7
	c-0.5,0-0.8,0.5-1.3,0.5c-0.8,0.3-1.5,0.7-2.3,0.9c-2.4,0.5-5.4,1.6-6.3-1.7c-0.8-2.9,0.5-5.6,3.7-6.6c1.2-0.4,2.5-0.8,3.4-1.1
	c-1.6,0.2-4.3,1.9-4.1-2.3c0.4-3.1,2.3-4.9,5-6C242.7,68,242.6,67.7,242.5,67.5z"/>
<path class="st11" d="M343.4,394.4c-12.3,9.6-26.4,14.4-41.9,14.9c-1.1-7.2-0.4-14.5-0.5-21.7c-0.1-5.4-0.5-10.9,0.3-16.3
	c1.2-1.1,2.7-1.2,4.2-1.2c11.4-0.1,22.8-0.1,34.2,0c1.3,0,2.6,0.2,3.8,1C345.7,378.9,345.7,386.6,343.4,394.4z"/>
<path class="st14" d="M85.5,409.3c-15.6-0.5-29.6-5.3-42-14.9c-2.7-6.9-1.2-14.1-1.1-21.1c0-1.9,1.6-3,3.4-3
	c12.9-0.2,25.8-0.8,38.7,0.3c0.3,0,0.6,0.3,0.8,0.5c1.1,7.6,0.4,15.2,0.4,22.8C86,399.1,86.6,404.2,85.5,409.3z"/>
<path class="st15" d="M264.5,182.6c-11,14.7-22.1,29.4-33.2,44.2c-0.5,0.6-1.2,1.1-1.8,1.7c-6.1-9.4-10-19.3-8.4-30.8
	c0.8-5.8,4.1-10,8.2-13.8c7.2-5,14.9-5.6,23-2.5c1.7,0.6,3.5,0.9,5.2,1.3c1.2-0.9,2.1,0.1,2.9,0.7
	C261.8,183,263.1,182.8,264.5,182.6z"/>
<path class="st16" d="M373.4,328.5c0.1,4,0.1,8,0.2,12c-0.7,10.7-3.7,20.7-9.2,29.9c-6.4,2.5-12.9,1.5-19.4,0.8
	c-0.6-0.3-1-0.8-1.3-1.4c-1.2-13.1-0.5-26.2-0.4-39.3c0-0.8,0.4-1.6,0.9-2.3c2.2-1.6,4.8-1.1,7.2-1.1c5.6-0.1,11.2-0.1,16.8,0
	C370.1,327.1,371.9,327.1,373.4,328.5z"/>
<path class="st14" d="M22.6,370.4c-5.7-9.8-9.1-20.3-9.2-31.8c-1.2-13.7-0.7-11.5,10.1-11.6c6.1,0,12.2-0.6,18.2,0.5
	c0.6,0.3,1.1,0.7,1.5,1.3c1.1,2.3,0.9,4.8,0.9,7.3c0,9.1,0,18.2,0,27.2c0,2.5,0.3,5-1.3,7.2C36.1,372.5,29.3,372.7,22.6,370.4z"/>
<path class="st17" d="M259.5,113.5c8,1.4,10.6,6.9,6.5,13.4c-0.7,1-1.7,1.8-1.3,3.5c2.3,9.8-1.4,14.9-11.7,16.2
	c-1.5,0.2-3,0.4-4.4,0.6c-2.4,0.4-4.5,1.2-4.4,4.3c0,1.6-1.2,2.7-2.5,3.5c-4.7,3-9.6,5.3-15.3,5.2c-1.1-3.7,1.8-4.7,4-6.3
	c1.1-0.1,2.2-0.1,3.3,0c0.7,0-0.1-1.1,0-0.4c0,0.1,0,0.1-0.2,0.1c-1.3,0.1-2.9,1-3.4-1.2c1.3-1.8,2.4-3.7,4.6-4.6
	c1.5-0.1,3.1,0.1,4.6-0.3c-1.8,0.4-3.5,0.7-5.1-0.5c0.4-2.3,2.6-3.2,3.8-4.9c1.2-0.9,2.6-1,4.1-0.9c-0.5-0.7-1.5-0.1-1.9-0.9
	c-0.4-1.8,0.6-3.2,1.4-4.6c5.2-5.4,9.1-11.8,13.5-17.7C256.5,116.5,257.8,114.8,259.5,113.5z"/>
<path class="st18" d="M240.4,140.5c0.8,0,1.6,0.1,2.6,0.1c-1.3,1.7-2.9,1.6-4.5,1.7c-1.3,1.5-5.1,0.5-4.2,4.2
	c1.4,1.4,3.4,0.4,5.8,1.6c-2.5,0.2-4.2,0.4-5.9,0.6c-1,0.4-2.1,0.6-3.2,0.7c-3.9,0.1-1.4,1.9-0.8,3.2c1.4,0.4,2.7,0.8,4.8,1.5
	c-2.1,0.2-3.4,0.4-4.8,0.6c-5.5-0.5-8.6,3.3-12.1,6.6c-4.3,4.6-7.2,10.2-10.8,15.2c-2.2,1.4-4.6,0.9-7,1c-0.5,0.4-0.9,0.3-1.3-0.2
	c-0.9-3.4,0.9-6.2,2-9.1c5.7-15.3,11.3-30.6,17.4-45.8c2.2-5.2,3.6-10.7,5.8-15.9c1.1-2.5,0.9-4.8-0.8-7c-0.8-1-1.4-2.3-1.4-3.7
	c0-0.8,0.3-1.4,1.1-1.6c1.8,0.1,2.7,1.8,4.1,2.7c2.8-3.8,2.2-7.6,0.3-11.4c0-0.3-0.1-0.6-0.1-0.9c-0.4-1.1,0.1-1.2,0.9-1l0.1-0.1
	c3.9,1.5,5.3-0.2,5-6.1c-0.9-1.7-3-2.5-3.4-4.5c2.5-1.4,5.2,6.3,7.5-0.3c0.9-0.2,1.4,0,0.9,1c0,1.3-0.3,2.9,1.9,2.4
	c1.7-0.4,3.5-0.8,5.7-1.3c-1.3,2.9-3.9,3-6.1,3.7c-1.1,0.4-2.5,0.1-3,1.3c-0.7,1.6-2.1,3.5-1.1,5.1c0.9,1.4,3,0.7,4.6,0.5
	c1.3-0.2,2.6-0.6,3.8-0.9c0.3,0.2,0.4,0.4,0.3,0.7c-0.1,0.2-0.2,0.4-0.3,0.4c-1.6,0.7-3.2,2-4.9,2.1c-4.7,0.3-6.5,3-7.2,7.1
	c-1,2.3,0.5,2.3,2.2,2.6c1.3,0.2,3.3-1.1,3.9,1.3c-7-0.2-9.4,4.3-10.8,10.2c-1,4.2-2.6,8.2-3.9,12.3c-6.8,16-11.6,32.8-16.3,49.7
	c2.8-3.8,5.6-7.6,8.4-11.4c0.7-3.2,3.8-5,4.5-8.2c0.3-1.1,0.6-2.2,1.8-2.7c4.8-0.5,4.5-5.1,6.4-8c0.6-0.3,1.3-0.4,2-0.1
	c1,1.2,1.7,0.6,1.9-0.6c1-4.8,3.4-4.1,6.4-1.7C240,138.2,240,139.5,240.4,140.5z"/>
<path class="st19" d="M357.5,246.5c-3.6,2.9-7.8,1.4-11.8,1.9c-1.1-1-2.2-1-3.3,0c-2.5,0-5,0-7.5,0c-0.9-0.4-1.5-1.1-1.7-2
	c0-1.5,0.6-2.6,1.8-3.5c1.4-0.6,2.4-1.6,2.6-3.2c0.8-2.4,1.6-4.9,4.6-5.5c0.5,0,1.3,0.8,1.6,0.2c0.3-0.6-0.5-1.4-0.6-2.2
	c1.7-4.8,4.5-8.9,8.3-12.2c1.7-0.7,3.3-0.1,5,0.2c0.5,0,0.9,0.1,1.4,0.2c1.6,0.4,3.2,0.9,4.7,1.4c2.3,1.2,4.9,1.9,6,4.6
	c0.3,0.6,0.7,1.2,1,1.7c0.5,1.3,0.2,2.3-0.7,3.3c-2.2-0.5-1.4,1.4-1.9,2.3C364.1,238.2,360.9,242.4,357.5,246.5z"/>
<path class="st20" d="M238.4,138.4c-3.2,2.2-2.5-1.4-3.5-2.7c-0.7,2.1-0.9,4.1-1.9,5.7c-1.3,2-2.5,1.7-2.7-0.9
	c-0.9-1-0.3-2.1-0.4-3.9c0,1.9-0.5,2.9-1.2,3.9c0.4,4-1.9,6.6-4.8,8.9c-1.1,0.8-1.3,0-1.5-0.9c-0.7-1-0.5-1.9-0.2-2.4
	c-0.4,1.5-1.9,3.3-0.8,5.5c-1.3,3-3.6,5.1-5.7,7.4c0.5-7.5,2.3-14.4,8.2-19.6c1.8-1.6,3.6-3.5,3-6.4c0-0.2-0.1-0.4,0-0.5
	c5.7-4.1,6.4-11.8,11.9-15.9c3.2-2.3,6-1.2,7.9,2.1c1.4,2.5,2.4,2.2,3.6-0.2c1.9-3.7,4.7-6,9.2-5c-5.1,8-10.1,16-17.1,22.7
	C241.5,137.5,240,138,238.4,138.4z"/>
<path class="st21" d="M320.5,124.5c1.2-2.6,2-5.6,5-6.9c0.5,0.2,1.1,0.4,1.2,0.8c0.9,6.4,5.5,12,4.6,18.9c-0.4,3.3,1.5,6,2.1,9
	c0.2,1.5-0.3,2.9-0.9,4.2c-1.9,3.8-1.6,7.6,0.1,11.3c0.9,2.9,2.1,5.9,0,8.8c0,4.3,0,8.6,0,12.8c0.1,1.2-0.5,1.4-1.4,0.8
	c-1.8-3.5-0.7-7.1-0.8-10.6c0.6-0.6-0.5-0.7,0.1-0.4c-3.2,4-5.9,2-8.6-0.6c-2.1-3.5-1-7,0.8-9.8c3.2-4.8,2.8-9.1-0.2-13.7
	c-0.5-0.7-0.6-1.5-0.7-2.3c0.7-6.1,0.3-12.1-1.4-18C319.9,127.3,319.3,125.9,320.5,124.5z"/>
<path class="st22" d="M322.4,171.3c2.1,3.8,5.2,3.4,9.1,1.4c0,4.3,0,8.1,0,11.8c0.4,0.9,0,1.7-0.6,2.2c-2.9,2.7-0.9,3.8,1.5,4.9
	c0.1,2.6,0.2,5.3,0.3,7.9c0.6,1.4,0.2,2.9,0.3,4.3c-1.4,6.1-5.6,10.3-9.4,14.9c-1.2,1.5-2.6,2.1-3.9,0c-0.8-2.8-0.8-5.6,0-8.4
	c0.5-1.2,1.5-1.6,2.7-1.8c1.5-0.3,3.7,0,2.8-2.7c-0.8-2.3-2.1-1.1-3.4-0.3c-1.2,0.7-1.7-0.2-2.1-1.2c-0.8-4.9-0.6-9.8-0.1-14.7
	c1.2-4.2,0.4-8.5,0.7-12.8C320.3,174.7,319.6,172.2,322.4,171.3z"/>
<path class="st23" d="M363.7,371.5c-4.7,8.9-11,16.3-19.3,22c-0.8-7.4-0.8-14.7,0-22.1C350.9,370.7,357.3,370.6,363.7,371.5z"/>
<path class="st24" d="M42.5,393.5c-8.3-5.7-14.6-13.2-19.3-22c5.7-1.1,11.5-0.2,17.3-0.5c1.6-0.1,2.5,0.5,2.5,2.3
	C42.7,380,43.6,386.8,42.5,393.5z"/>
<path class="st25" d="M85.5,409.3c0-12.6,0-25.2,0-37.8c-0.1-0.3-0.1-0.6-0.2-0.9c0.2-0.2,0.4-0.4,0.7-0.7c0.5-0.3,1.1-0.5,1.7-0.7
	c8.5-0.6,16.9-0.2,25.4-0.3c13.9-0.1,13.8,0,13.9-14.1c0-8.6-0.2-17.3,0.1-25.9c0-0.6,0-1.3,0-1.9c-0.3-8.4-0.1-16.7-0.1-25.1
	c0-2,0-4,1.3-5.6c1.4-1.1,3-1.3,4.7-1.3c11.3-0.1,22.5-0.1,33.8,0c1.5,0,3,0.2,4.3,1c0.6,0.4,0.7,1,0.4,1.7
	c-2.1,1.7-4.7,1.4-7.2,1.4c-9.1,0.1-18.2,0-27.4,0c-5.5,0-5.8,0.5-5.9,6c-0.1,7.5,0.1,14.9-0.1,22.4c-0.1,14.1,0.7,28.2-0.4,42.3
	c-0.3,0.6-0.6,1.1-1,1.7c0,12.6,0,25.2,0,37.8c-0.4,0-0.7,0-1.1,0c0-11.2-0.1-22.3,0.1-33.5c0.1-3.6-1.2-4.5-4.6-4.5
	c-11,0.2-22,0.2-33,0c-3.4-0.1-4.7,0.9-4.6,4.5c0.2,11.1,0.1,22.3,0.1,33.5C86.2,409.3,85.8,409.3,85.5,409.3z"/>
<path class="st26" d="M332.5,146.5c-1.8-3.7-4.1-7.2-2.2-11.6c0.2-0.5,0-1.3-0.2-1.9c-2.2-4.9-3.7-10.1-4.7-15.4
	c1.2-1.9,2.3-3.8,3.6-5.8c2.2,1.9,3,4.1,3.6,6.5c2.1,4.1,0.1,7.9-0.6,11.5c2.3-2.4,3.6-2.4,5.3,0.6c1.4,2.3,1,5.1,2.1,7.5
	c0.8,3.4-1.6,5.4-3.4,7.6C334.5,144.9,333.8,146.6,332.5,146.5z"/>
<path class="st27" d="M368.5,231.2c0.4-1,0.7-2.1,1.1-3.1c6.5,6.2,4.2,13.3,1.9,20.3c-1.6-0.1-2.7-1.7-5.1-0.5
	c-2.5,1.2-6.4,1.7-8.9-1.4c1.5-5.4,5.6-8.9,8.8-13.1C367.7,233.3,368.4,232.6,368.5,231.2z"/>
<path class="st28" d="M320.5,124.5c2.2,7.5,4.3,15.1,2,23c0.4,1.5,0.1,2.9-0.5,4.2c-0.9,1.2-1.8,2.4-3.6,1.9c-1.1-2.3-0.3-4.9-1-7.3
	c-0.5-1.7-0.7-3.6-2.7-4.4c-2.5-1.5-1.8-3.7-1.4-5.8c1.1-4,3.7-7.5,4.4-11.7c0.2-0.5,0.5-0.8,1-1.1
	C319.2,123.7,319.9,124.1,320.5,124.5z"/>
<path class="st29" d="M283.3,172.5c-0.3-0.3-0.6-0.5-0.9-0.8c-0.3-2.8-0.1-5.5,0.9-8.1c1.3-2.7,2.1-5.7,4.9-7.3
	c0.8-0.2,1.5,0.1,2.1,0.7c1.4,1.5,2.4,3.3,3.3,5.2c1.3,3.9,2,7.9,0,11.8C289.1,177.5,287.1,177.3,283.3,172.5z"/>
<path class="st30" d="M275.3,158.6c0.2-2.6-0.2-5-0.9-7.6c-1.7-6.2-0.9-12.3,2.9-17.7c0.5,0.1,0.9,0.4,1.2,0.7
	c2.3,3.6,5.2,6.9,4.8,11.6c-0.2,0.4-0.4,0.8-0.8,1.1c-2.1,1.8-1.9,4.5-2.6,6.8c-0.5,1.6-0.2,3.4-1.8,4.5
	C277.2,158.6,276.2,158.6,275.3,158.6z"/>
<path class="st31" d="M215.5,371.5c0,12.6,0,25.2,0,37.8c-0.4,0-0.7,0-1.1,0c0-12.6,0-25.2,0-37.8c-0.4-0.5-0.7-1.1-1-1.6
	c-1.1-13.6-0.4-27.2-0.4-40.9c0-0.6,0-1.3,0-1.9c-0.2-8.4-0.1-16.8-0.1-25.2c0-1.8,0-3.6,1.1-5.2c0.5-0.5,1.1-0.5,1.7-0.1
	c1.2,1.5,1.2,3.4,1.2,5.2c0,8.5,0.2,17.1-0.1,25.6c-0.1,14.1,0.7,28.3-0.4,42.4C216.3,370.4,215.9,371,215.5,371.5z"/>
<path class="st32" d="M304.6,112.3c1.4-2.4,2.8-4.8,4.2-7.2c2.3,1.4,2.4,4.4,4.8,5.6c0.9,1.4,1.1,2.9,0.6,4.5
	c-2.6,3.3-3.4,7.9-7.1,10.5c-2.1-0.8-2.5-2.7-2.9-4.6C304.5,118.2,302.8,115.2,304.6,112.3z"/>
<path class="st33" d="M344.5,211.6c3-1.2,2.6-6.5,6.1-6.1c2.6,0.4,2.6,5.2,5.9,6.1c0.1,0.8-0.3,1.3-0.9,1.7
	c-3.3,1.8-4.6,5.5-7.3,7.8c-1.4,0.8-2.7,1.4-4.2,0.2C342.5,218.1,343,214.8,344.5,211.6z"/>
<path class="st34" d="M283.3,172.5c2.9,1.6,5.7,5.2,9.2,1c1.9-0.1,2.3,1.4,2.9,2.7c0.4,3.7,1.5,7.6-1.1,11
	c-3.3-3.1-7.1-5.6-11.2-7.4C283.2,177.3,283.3,174.9,283.3,172.5z"/>
<path class="st35" d="M335.4,145.5c1.3-2.3,2.7-4.7,4-7c-0.3-0.2-0.4-0.4-0.3-0.7c0.1-0.2,0.2-0.3,0.3-0.3c2-1.6,2.5-0.4,2.6,1.4
	c0.4,5.7,0.7,11.3-2,16.6c-0.5,1.4-1,2.6-2.9,1.8C336.1,153.4,334.7,149.6,335.4,145.5z"/>
<path class="st36" d="M85.5,370.4c0,0.3,0,0.7,0,1c-12.5,0-25,0.1-37.5-0.1c-3.4,0-4.7,1-4.6,4.5c0.3,6.2,0.1,12.3,0.1,18.5
	c-0.3-0.3-0.7-0.6-1-0.9c0-5.7-0.3-11.3,0.1-17c0.3-4.3-1.4-5.5-5.4-5.2c-4.6,0.3-9.3,0.1-14,0.1c-0.2-0.3-0.4-0.7-0.6-1
	c6.7,0,13.3,0,20,0c1.6-1.5,3.6-1.5,5.6-1.5c10.6-0.1,21.1-0.1,31.7,0C81.9,368.9,83.9,368.8,85.5,370.4z"/>
<path class="st37" d="M283.4,118.7c0.6-0.8,1.2-1.5,1.7-2.4c1.5-2.6,3.1-2.8,4.3,0.1c0.6,1.5,2.2,1.9,3,3.1
	c-1.4,2.6-2.7,5.3-3.2,8.2c-1.2,3.5-2.8,3.5-4.9,0.7c-1-1.3-2-2.6-2.5-4.1C281.1,122.1,281.9,120.3,283.4,118.7z"/>
<path class="st38" d="M275.3,158.6c0.5-0.9,1.3-1,2.2-0.8c3.7,0.3,5.6,2.7,6.9,5.8c-1.1,2.6-0.1,5.7-2,8.1
	C276.5,169.2,275.5,164.1,275.3,158.6z"/>
<path class="st39" d="M337.4,157.5c0.9-0.7,1.7-1.3,2.6-2c1.3,6.7-1.5,12.3-7.5,15.1c0.2-3.1-0.7-6.1-1.1-9.1
	C332.5,158.9,334.1,157,337.4,157.5z"/>
<path class="st40" d="M304.6,112.3c0.6,3,1.2,6.1,0.8,9.2c-2.5,1.4-3.6,3.8-4.8,6.2c-0.8,1.5-0.9,3.6-3.1,4.3
	c-1.4-0.1-2.1-1.1-2.6-2.2c-0.1-0.5-0.2-1-0.1-1.5c0.3-1,0.8-1.8,1.9-2c1.8-3.7,2.1-8,4.6-11.4C302.2,113.7,302.3,111.6,304.6,112.3
	z"/>
<path class="st41" d="M344.5,211.6c0,3.1,0,6.3,0,9.4c-0.1,0.5-0.5,0.7-1,0.6c-1.1-0.7-0.7-2.1-1.5-2.9c-1.8,1.3-2.8,4.4-5.9,2.7
	c-2.6-4.5-2.4-8,0.6-11.3C339.3,210.6,341.9,211.1,344.5,211.6z"/>
<path class="st42" d="M339.5,137.5c0.1,0.3,0.1,0.7,0,1c-1.9-2.1-1.9-4.9-3-7.2c-1.3-2.5-2.5-3.7-4.5-0.2c-1.4-4.7,0.9-8.6,0.6-12.7
	C339,123.2,339.2,130.4,339.5,137.5z"/>
<path class="st43" d="M296.8,126.2c-0.4,0.7-0.9,1.5-1.3,2.2c-1.4,1.8-3.4,3-4.4,5.2c-0.4,0.9-1.2,2.3-2.6,1.6
	c-1.1-0.6-1.3-1.9-1.1-3c0.3-1.6,0.4-3.2,0.9-4.8c0.4-3.1,0.4-6.4,4-7.9C294.2,121.5,295.9,123.6,296.8,126.2z"/>
<path class="st44" d="M42.5,328.4c-7.8,0-15.6,0.3-23.3-0.1c-4.7-0.2-6.3,1.4-5.7,5.9c0.2,1.5,0,3-0.1,4.5
	c-1.5-5.2-0.7-10.5-0.8-15.8c-0.2-8.8,0-17.6,0-26.4c0.3,0.1,0.5,0.1,0.8,0.2c0.4,0.4,0.8,0.9,1,1.5c1.1,7.2,0.3,14.5,0.5,21.7
	c0.2,5.6,0.4,5.9,5.9,6c5.3,0.1,10.6,0,15.9,0c1.8,0,3.6,0,5.3,0.9C42.6,327.3,42.8,327.8,42.5,328.4z"/>
<path class="st45" d="M336.7,210.1c-1.9,3.9-2,7.7,0.8,11.3c0.4,0.4,0.5,0.8,0.5,1.3c-1.5,2.6-3.6,4.1-6.6,4c-4.6-3.6-5-4.8-2.2-8.1
	c3.2-0.3,4-2.7,4.5-5.3C336,213.6,332.9,208.5,336.7,210.1z"/>
<path class="st46" d="M218.3,161.3c1.4-2,2.8-4,4.1-6.1c2.4-3.7,5.3-0.1,8-0.6c-0.9,2.1-3.7,3-3.9,5.7
	C223.8,161.3,221.1,161.5,218.3,161.3z"/>
<path class="st47" d="M355.4,212.5c0.3-0.3,0.7-0.5,1-0.8c1.4-0.3,2.9-0.6,4.3-1c5-1.4,5.1-1.4,3.9,4c-3.5,1-3.9,5.3-7.2,6.6
	c-0.3,0-0.7-0.1-1-0.1C354.7,218.4,354.3,215.6,355.4,212.5z"/>
<path class="st48" d="M368.5,226.4c-2-1.2-4.1-2.5-6.1-3.7c-0.1-1.8,0-3.5,2.1-4.3c0.9,0.4,1.8,0.8,2.7,1.1
	C372.6,221.7,372.7,221.7,368.5,226.4z"/>
<path class="st49" d="M260.5,183.3c-1.1,0.4-2-0.2-2.9-0.7c-0.1-3-0.7-6,0.7-8.8c0.7-1.4,1.3-3,3.2-2.4c2.2,0.7,1.3,2.5,0.7,3.7
	C260.9,177.7,260.3,180.4,260.5,183.3z"/>
<path class="st50" d="M364.5,218.4c-0.7,1.4-1.4,2.8-2.1,4.3c-1.7-0.5-3.3-0.9-5-1.4c1.4-3.6,4.5-5.9,6.6-9.6
	c0.3,1.4,0.4,2.2,0.6,2.9C364.6,215.9,364.5,217.2,364.5,218.4z"/>
<path class="st51" d="M172.5,371.5c0,12.6,0,25.2,0,37.8c-0.4,0-0.7,0-1.1,0c0-12.6,0-25.2,0-37.8c-0.1-0.2-0.3-0.4-0.4-0.5
	c0.1-0.2,0.2-0.4,0.3-0.6c0.2-0.1,0.4-0.1,0.6-0.2c0.2,0.1,0.4,0.2,0.6,0.2C172.9,370.8,172.9,371.2,172.5,371.5z"/>
<path class="st52" d="M258.5,371.5c0,12.6,0,25.2,0,37.8c-0.4,0-0.7,0-1.1,0c0-12.6,0-25.2,0-37.8c-0.2-0.2-0.3-0.4-0.2-0.6
	c0.1-0.2,0.1-0.3,0.2-0.3c0.4-0.2,0.7-0.2,1.1,0c0.2,0.2,0.3,0.4,0.2,0.7C258.6,371.4,258.6,371.5,258.5,371.5z"/>
<path class="st53" d="M301.5,371.5c0,12.6,0,25.2,0,37.8c-0.4,0-0.7,0-1.1,0c0-12.6,0-25.2,0-37.8c0.2-0.1,0.3-0.2,0.5-0.3
	C301.1,371.3,301.3,371.4,301.5,371.5z"/>
<path class="st54" d="M332.4,191.6c-1.7,0-3.5,0-5.4,0c0.5-3.4,2.7-5.1,4.5-7.1c0.3-0.3,0.7-0.7,1-1
	C334.6,186.2,333.5,188.9,332.4,191.6z"/>
<path class="st55" d="M333.6,213.4c2,4.3,0.2,6-4.1,6.1c-1.6-2.6,0.9-4.5,1.3-6.8c0.4-2.7,1-5.4,1.4-8.1c0.2-1.7,0.3-3.4,0.5-5.1
	C333.9,204,333,208.7,333.6,213.4z"/>
<path class="st56" d="M313.5,115.7c0-1.6,0.1-3.3,0.1-4.9c4,3.3,4.7,7.8,5,12.6c-0.1,0.4-0.3,0.9-0.4,1.3
	C314.9,122.6,313.6,119.4,313.5,115.7z"/>
<path class="st57" d="M387.3,277.4c-2.4-0.9-3.9-2.5-3.7-5.1c0.2-2.1,1.4-3.6,3.8-3.7C387.3,271.4,387.3,274.4,387.3,277.4z"/>
<path class="st58" d="M283.4,118.7c-0.3,1.9-0.6,3.9-0.9,5.8c-0.7,2.4-0.8,5-3.5,6.2c-1.4-0.9-1-2.2-0.5-3.4
	C279.2,123.9,279.4,120.2,283.4,118.7z"/>
<path class="st59" d="M344.5,371.5c0,7.4,0,14.7,0,22.1c-0.3,0.3-0.7,0.6-1,0.9c0-7.6,0-15.3,0-22.9c0.2-0.1,0.3-0.2,0.5-0.3
	C344.1,371.2,344.3,371.4,344.5,371.5z"/>
<path class="st60" d="M363.7,371.5c-6.4,0-12.8,0-19.2,0c0,0,0,0,0,0c-0.2-0.2-0.3-0.4-0.2-0.7c0.1-0.2,0.2-0.3,0.2-0.3
	c6.6,0,13.3,0,19.9,0C364.2,370.8,364,371.1,363.7,371.5z"/>
<path class="st61" d="M278.4,127.3c0.2,1.1-0.1,2.4,1,3.2c0.5,1.8,0.5,3.4-1.8,3.9c-0.1-0.4-0.2-0.7-0.4-1.1
	C277.7,131.3,277.2,129.1,278.4,127.3z"/>
<path class="st7" d="M161.5,35.5c-3.3,5.6-3.1,11.7-3,17.9c0.5,1.6-0.2,2.9-1.1,4.1c-9.3,12.9-18.7,25.7-28.1,38.5
	c-0.5,0.7-1.1,1.3-1.9,1.6c-4.7-5.9-3.9-12.2-0.8-18.2c2-3.9,1.1-6.1-2.2-8.2c-1.7-1.1-3.4-2.2-4.9-3.4c-5.8-4.6-6.8-15.1-1.9-20.7
	c1.4-1.6,3.2-2.6,5.3-2.4c6.2,0.6,10.3-2.3,13.9-7c4.6-5.8,10.7-8.1,18.2-6.4C157.8,31.9,160,33.2,161.5,35.5z"/>
<path class="st62" d="M199.2,177.3c0.4,0.1,0.8,0.1,1.2,0.2c-8,11.2-16.1,22.4-24,33.7c-0.9,1.3-2.9,2.3-1.7,4.5
	c-0.6,1.8-1.9,1.7-3.3,1.1c-0.7-0.8-0.6-1.8-0.7-2.8c-0.4-5.2-2.1-6.8-7.5-7.1c-2.6-0.1-5.3,0.5-7.8-1c-0.7-0.8-0.9-1.7-1-2.7
	c-0.4-4.4-3-6.2-7.2-6.3c-1.6-0.1-3.3,0.1-4.5-1.3c7.4-10.5,17.6-16.3,30.3-18c1.1-0.1,2.4,0.3,3.2-0.9c2.1-1.1,4.5-0.2,6.7-0.7
	c1.6,0.2,3.1,0.3,4.7,0c1.2,0,2.3,0.2,3.5,0.2c1.5,0.1,3,0,4.4,0C196.9,176.3,198.2,176.3,199.2,177.3z"/>
<path class="st63" d="M127.4,97.6c3.3-6.5,8.3-11.9,12.4-17.9c6.1-8.9,13.2-17,18.7-26.3c2,2.7,3.2,6.1,7,7.1
	c2.6,1.9,2.3,4.1,0.7,6.5c-1,1.5-2.1,3-3.2,4.4c-3.3,3.9-3.4,7.7,0.2,11.5c0.6,0.7,0.9,1.7,1.3,2.6c0.9,1.3,0.3,2.5-0.4,3.6
	c-0.5,0.5,0.2,0-0.3,0.4c-1.8,1.4-3.4,4.8-5.9,2.6c-2.3-2-3.3-5.3-0.7-8.3c0.4-0.5,0.6-1.2,0.8-1.8c0.4-0.9,1.1-1.7,1-2.8
	c0,1.1-0.8,1.9-1.1,2.8c-0.7,2.4-3.7,2.1-4.9,4.3c3.1,0.9,4.3,3.7,3.7,6.4c-0.5,2.8-3.4,1.7-5.4,1.6c-0.3,0.2-0.6-0.8-0.8-0.1
	c-0.2,0.6-0.2-0.3,0.4,0.1c6.9,0.8,9,2.7,9.9,8.3c0.5,2.9-0.6,4-3.5,3.7c-0.4,0-0.7-0.6-1.2-0.2c0.4,0.3,0.7,0.7,0.8,1.2
	c-0.2,2.6-1.6,4.4-3.7,5.7c-0.3,0.5-2.1-0.8-1.2,1.1c0,0.4,0,0.9-0.1,1.3c-0.9,1.5-1.3,3.7-3.9,3.3c-1.8-2.3-2.4-5.2-2.5-7.9
	c-0.3-5.5-3.2-7.7-8.4-8.3C133.5,102,129.7,101.2,127.4,97.6z"/>
<path class="st1" d="M132.4,157.5c-6.6-1-8.9-5.7-4.9-11.3c2.2-3,2-4.5-0.7-6.8c-5.2-4.4-5.6-9.6-1.6-15.4
	c4.6-6.8,10.2-6.8,14.3,0.2c1.6,2.7,2.5,5.1,6.6,2.7c2.4-1.4,5.8-0.4,8.3,1.8c-1.1,3.2-3.7,5.3-5.3,8.2c-0.7,0.9-1.5,1.7-2.7,2.1
	c-0.4,0.1-0.8,0-1.1-0.2c-1.6-0.2-0.5,1.7-1.5,2c-2.9-1.4-1.2,1.5-2,2.1c-0.7,0.8-1.7,0.1-2.6,0.6c1.2-0.3,1.9,0.2,2.6,1
	c0.6,1.9-1.2,2.7-1.8,4c-0.2,0.4-0.4,0.8-0.6,1.2C137.5,152.5,135.7,155.6,132.4,157.5z"/>
<path class="st64" d="M29.9,212.2c2.7-2.8,1.3-7.1,4-10c2.9-3.2,7.2-4.7,11-7.9c-2.5-0.7-4.5-1.2-6.4-1.9c-2.8-1.1-4.3-3.3-3.9-6.2
	c0.4-3.6,3.4-1.4,5.1-2c1.3-0.4,3.6,1.1,3.3-2c-0.1-1.2,1.3-1,1.9-0.8c5,1.8,6.4-2.6,7.5-5.3c1.2-2.9,1.9-2.2,3.7-1.1
	c2,1.2,4,2.4,6.4,2.6c4.3-0.6,4.9,2.6,5.7,5.6c-0.5,2-1.5,3.7-3.4,4.7c-1.1,0.3-2-0.3-2.4-1.2c-1-1.9-2-0.8-3-0.2
	c-2.7-0.5-5.5-0.4-9.5-0.4c2.9,0.1,4.7,0,6.4,0.1c0.9,0.1,1.6,0.4,1.6,1.4c0,1.4-1.1,1.4-2.1,1.5c-1,0.1-1.9,1.1-2.1,0.9
	c0.4,0.1,1.5-0.9,2.7-0.9c2-0.3,3.9-1.3,5.9,0c1.3,1.5,0.5,2.9-0.2,4.3c-0.8,0.8-1.8,0.7-2.8,0.4c-1.6-0.5-3.2,0.4-4.9,0.2
	c1.5,0.3,2.9-0.7,4.3,0.1c1.6,1.4,1.3,2.6-0.4,3.5c-2.2,1.2-4,3.1-6.6,3.4c-1.8-0.1-3.6-0.3-5.4-0.3c-1.8,0-2.8,0.5-3.8,2.4
	C39.9,208.2,35.4,210.9,29.9,212.2z"/>
<path class="st18" d="M158.6,81.5c-0.8,3.5-3.8,7.1,0.3,10.6c1.5-1.2,3.1-2.4,4.6-3.6c1.6,1.8,0.4,3.4-0.6,4.9
	c-1.2,1.8-1.5,3.6-0.4,5.5c2.4,4.8,3.3-1.1,5.1-0.8c0.8,0,1.2,0.5,1.5,1.2c0.5,2.7-1.4,4.7-2.3,6.9c-0.9,2.1-0.2,3.9,0.8,5.7
	c1.2,2.1,2.6-0.3,3.9,0.1c0.7,0.2,1.2,0.6,1.4,1.3c-1.5,4.2-3.5,8.4-0.4,12.8c3.1,9.7,5.7,19.5,8.5,29.2c1.5,5.1,3.6,10,5.7,14.9
	c0.8,1.9,2.1,3.9,0.9,6.1c-1.4,1.4-2.8,1.7-4.2,0c-0.4-0.3-0.7-0.6-1-0.9c-0.8-0.9-0.5-2.1-0.8-3.2c-5.7-13.6-8.9-28-13.2-42
	c-2.3-5.6-5.1-10.7-12-11.7c-0.7-0.1-1.2-1-1.2-1.9c0.9-1.3,2.2-1.2,3.5-1.3c1.2-0.1,2.9,1,3.4-0.8c0.5-1.6-0.5-3.2-1.7-4.4
	c-1.1-1.2-3-1.3-4-2.7c-1.3-1.5-3.7-1.5-4.9-3.9c1,0.3,1.6,0.5,2.2,0.6c2.1,0.3,4.3,2.8,6.2,0.3c1.2-1.5-2.6-7.5-4.8-8.2
	c-1.9-0.6-3.8-1.3-5.7-1.9c-0.2-0.9,0-1.4,1-1c1.9-0.4,4.4,1.7,5.5-1.2c0.7-1.7-2-4.3-5.8-6c2.4-1.5,4.8-3.1,7.2-4.6
	C157.9,81.1,158.3,81.1,158.6,81.5z"/>
<path class="st65" d="M70.5,175.7c3.7-7,3.8-8.1,1.4-17.5c3.9-0.1,3.9-0.1,9.2,5c0.9-1.2,1.9-2.3,2.8-3.5c1-1.3,1.8-1.8,2.9,0.1
	c2.2,3.6,4.4,1.1,6-0.5c1.5-1.5,2.8-3.2,4.6-4.5c2.1-1.6,4.2-2.4,6.3,0c0.5,2.1-0.9,3.5-2,4.9c-2.4,3-4.2,6.3-6.2,9.6
	c-1.5,1.1-3.2,2-4.6,3.4c-3,1.2-3,1.2-4.1-1.5c-0.4,4.2-1.3,8.3-4.9,11.3c-0.9,0.7-1.8,1.7-3.1,1.1c-1.3-0.6-1.1-1.9-1.1-3.1
	c-0.1-1.6,0.7-3.3,0.1-4.9c-0.4-2.1,0.3-4.1,0.5-7c-0.3,1.6-0.1,2.3-0.3,2.9c-0.3,0.8-0.3,1.6-0.3,2.4c-0.1,1.4,0.3,2.9-1.1,3.9
	c-0.6,0.3-1.1-0.1-1.6-0.2c0,0.7,0.6,0.9,0.9,1.3c1.9,2.3,2.6,4.7,1.3,7.5c-3.9,0.6-3.8-3.2-5.4-5C70.9,179.4,69.1,177.8,70.5,175.7
	z"/>
<path class="st66" d="M110.6,178.5c3.7-0.1,7.3-0.2,11-0.2c8,0,10.8,3.6,9,11.2c-1.1,1.1-2.4,0.9-3.7,0.6c-4.5-1-8.2,0.2-11.1,3.7
	c-4.2,0.6-7.1-1.6-9.8-4.3c-1.2-3.9-1-7.5,2.4-10.3C109,178.7,109.8,178.4,110.6,178.5z"/>
<path class="st67" d="M110.6,178.5c-0.4,0.4-0.7,0.7-1.1,1.1c-2.2,0.6-3.2-1.5-4.9-2c-3.6-1.8-6.7,1.4-10.1,1.1
	c-5.5-1.6-6-2.5-3.5-6.3c1.7-1.9,3.6-0.7,5.4-0.2c0.8,0.3,1.5,0.5,2.3,0.3c0.3-0.1,0.7,0.1,0.8-0.3c-0.3,0.1-0.6,0.2-0.9,0.2
	c-0.3,0-0.6,0-1,0c-1.7-0.8-4.7-0.5-2.9-3.9c1.7-5.4,6-9.2,8.8-13.8c1.4-0.2,4-0.6,3.8,0.7c-0.4,2.7,3.8,4.5,1,7.6
	c-1.7,1.9-4,3-6,5.1c3.4,0.8,7.1-0.9,10.4,1.8C107.4,171.7,112.6,175.7,110.6,178.5z"/>
<path class="st68" d="M183.4,175.3c0,0.3,0,0.7,0.1,1c-2.3,1.7-4.7,1.3-7.2,0.3c-4.9-6.2-10.6-11.7-17.1-16.3
	c-2-0.9-4.1-1.3-6.2-1.6c-2-0.3-4.8-0.1-2.5-3.7c0.7-1.1-0.8-2-1.7-2.6c-1.5-1.1-3.4-1.3-4.9-2.3c-1.1-0.9-0.2-1.9-0.1-2.9
	c-0.2-1.4-1.6-1.7-2.3-2.6c-1.2-0.5-2.3-1-3.6-1.5c1.2-1.2,2.4-0.4,3.5-0.6c0.5-1.2,2.2-1.2,2.6-2.5c0.1-0.8,0.1-1.9,1.4-1.4
	l0.1-0.1c1.4,1.2,0.8,3.5,2.2,4.7c1.3-0.6,0.6-3.3,2.9-2.7c1.9,3.3,1.4,7.5,4.3,10.3c1.2,0.3,1.2-2.2,2.7-1.3
	c1.8,1.9,1.2,4.7,2.6,6.7c7.1,5.3,14.7,10.1,20.1,17.3C181.5,174,182.3,174.8,183.4,175.3z"/>
<path class="st69" d="M115.5,193.5c1.6-5.4,6-5.2,10.3-4.9c1.6,0.1,3.2,0.6,4.8,0.9c1.9,1.9,4.9,1.3,7,3
	c-4.5,5.2-7.6,11.6-13.4,15.6c-2.2,0.2-4.1-0.3-5.4-2.4C118.8,201.3,116.6,197.5,115.5,193.5z"/>
<path class="st70" d="M143.5,149.4c2.7,0.5,5.4,0.8,7.5,3.1c2.6,2.9,2.8,2.8-0.7,4.8c3.2,0.5,6.9-0.6,8.9,3
	c-2.9,1.3-5.5,3.1-8.8,3.3c-4.2,0.2-8.2,0.3-8.2-5.7c0-2.5-1.6-3.1-3.8-2c-1.9,1-3.8,2.1-6.1,1.6c2-3,4.1-6,6.1-9
	C140.5,147,142.1,147.8,143.5,149.4z"/>
<path class="st71" d="M124.5,207.4c4.5-4.8,7.1-11.4,13.1-14.9c1.6,1.1,3.3,2.1,4.9,3.2c2.5,4.3,1.7,8.2-1,12
	c-1.4,1.5-3.2,2.4-5.2,2.9C131.9,210.8,127.6,211.4,124.5,207.4z"/>
<path class="st72" d="M155.5,116.5c0.5,1.2,1.8,1.7,2.8,1.8c8.1,0.1,9.3,5.8,10.2,12c-8.7-0.5-16-3.5-20.3-11.6
	c1.1-1.4,2.3-2.8,3.4-4.2c1.4-0.7,2.2,0.5,3.2,1.1C155.1,115.8,155.3,116.1,155.5,116.5z"/>
<path class="st73" d="M70.5,175.7c0.6,1.6,1.3,3.2,1.9,4.9c-0.5,1.7-1.1,3.3-2.8,4.2c-1,0.1-1.7-0.3-2-1.4c-1-2.6-2.4-4.9-5.1-6
	c-0.6-3.1-3.3-4.8-5-7.3c-2.1-3.1-1.1-5.4,1.7-7c2.9-1.6,5-0.8,6.3,2.4C66.9,169.1,67.7,172.9,70.5,175.7z"/>
<path class="st74" d="M140.5,207.4c2.6-3.6,2-7.7,1.9-11.8c0,0,0.4-0.2,0.4-0.2c1.2,0,2.3,0,3.5,0c7.5-0.1,9.8,2.3,9.4,9.8
	c-1.7,2.3-3.9,3.8-6.4,5.1C146,210.4,143,209.7,140.5,207.4z"/>
<path class="st75" d="M160.3,156.1c-2.9-1.3-2.1-4.3-3-6.5c-0.4,0.3-0.8-2-1.3,0c-0.2,0.9,0.2,2-0.6,2.8c-5.5-2.3-3.9-7.6-5.2-11.8
	c-1.3-0.8-1.9-2.1-1.8-3.6c0-0.2,0-0.5,0-0.7c1.2-3.2,3-5.9,5.8-7.8c2.8,3.6,0.2,6.9-0.7,10.2c-0.7,2.6-2.6,5.6,2.9,3.6
	c3-1.1,5.2,1.5,4.6,5.5C160.7,150.6,160.2,153.3,160.3,156.1z"/>
<path class="st76" d="M29.9,212.2c2.7-1.8,5.5-3.6,8.2-5.5c1.1-0.7,2.1-1.6,3-2.5c1.1-1.3-0.5-4.2,2-4.5c2.9-0.3,5.9-0.9,8.7,0.6
	c0.6,0.6,1,1.3,1.4,2.1c0.7,1.6,2.1,2.7,2.9,4.2c0.2,0.4,0.2,0.9,0.2,1.4c-0.1,0.7-0.3,1.4-1,1.8c-3.1-0.1-4.4-2.4-5.8-4.7
	c-1.6-2.7-3.3-2.9-5.2-0.1c-3.6,5.3-8.9,8.1-14.7,10.1c-0.8-0.2-1.3-0.6-1.1-1.5C29,213.1,29.5,212.6,29.9,212.2z"/>
<path class="st77" d="M16.8,246.6c-0.2,1.7-1.1,1.6-2.2,0.8c-1.9-10.6,0.8-19.9,7.9-27.9c1.1-0.2,1.4,0.5,1.5,1.4
	c0,1.4-0.6,2.6-1.3,3.7c-3.6,5.4-5.4,11.3-4.9,17.8C17.9,243.8,17.9,245.3,16.8,246.6z"/>
<path class="st78" d="M23.6,220.7c-0.4-0.4-0.7-0.8-1.1-1.2c1.5-2.5,3.5-4.5,6-6c0.4,0.4,0.8,0.7,1.2,1.1C29,218,27,220,23.6,220.7z
	"/>
<path class="st79" d="M183.4,175.3c-1.9,0.8-2.4-0.6-2.9-1.8c0.4-0.4,0.8-0.8,1.2-1.2C182.2,173.3,182.8,174.3,183.4,175.3z"/>
<path class="st80" d="M215.6,296.7c-0.4,0-0.8,0-1.2,0c-0.9,0.8-2,1.2-3.2,1.2c-12.7,0.1-25.4,0.7-38-0.3c-0.6-0.2-1.2-0.6-1.7-1
	c-14.4,0-28.7,0.1-43.1,0.1c-2.5,1.9-5.4,1.3-8.1,1.3c-5.4-0.1-10.9,0.6-16.3-0.5c-0.6-0.2-1.1-0.6-1.4-1.2c0.7-1.2,2.1-2.1,1.9-3.7
	c3.6-1.5,5-4.4,5.1-8.1c4-1.1,5.2-4.7,6.9-7.8c6.7-1.4,6.7-1.4,6-8.1c2.8-2.1,4.1-5.5,6.2-8.2c0.8-0.3,1.6,0,2.4,0.3
	c1.7,0.5,3.3,0.4,4.4-1.2c1.1-1.5,0.7-3.1-0.3-4.6c-0.5-0.7-1-1.3-0.8-2.2c1-1.3,2-2.7,3.1-4c0.2-0.2,0.5-0.4,0.7-0.7
	c8.4-1.6,16.9-0.6,25.3-0.9c5.5-0.2,11,0,16.5,0.1c2.7-0.1,5.5,0,8.2,0c1.5-0.1,3,0,4.5,0c2.7,0.1,5.4-0.5,7.8,1.2
	c12,0,24.1,0,36.1-0.1c14.6,0.1,29.2,0.3,43.8,0.4c-2.5,3.4-4.4,7.4-7.9,9.9c-1.1-0.8-1.5-2.2-2.5-3.1c-1.6-1.5-3.2-1.8-4.8-0.1
	c-1.7,1.9-1.1,3.6,0.8,5.1c1.1,0.8,2.5,0.8,3.5,1.8c-2.3,6.7-7.7,11.4-11.5,17.1c-3.9,5.9-8.3,11.4-12.5,17.1
	c-0.6,0.6-1.3,1.1-2.1,1.2c-8.7,0.7-17.4,0.7-26.1,0C216.6,297.5,216.1,297.1,215.6,296.7z"/>
<path class="st81" d="M52.9,247.4c-0.9-1-1.7-1.2-2.6,0.1c-1.3,1-2.7,0.3-4.1,0.5c-1.2,0.4-1.2-2.4-2.7-1.1
	c-1.9,1.6-4.1,1.3-6.2,0.6c-1.4-1.3-2.4,0.4-3.6,0.4c-2.2-0.5-5.2,1.3-6.3-1.1c-1.1-2.5,1.8-4.3,3.2-6.2c0.8-0.9,2.7-0.8,2.6-2.6
	c0.9-2.5,2.1-4.8,4.7-5.9c1-0.2,1.3-1,1.3-1.9c0.3-1.9,1.9-2.8,3.2-3.9c0.3-0.3,0.5-0.6,0.8-1c0.6-1.6,1.3-3.2,2.6-4.4
	c0.6-0.7,0.9-1.6,1.3-2.4c1.2-2.3,2.7-4.2,5.6-4.2c7.4,1.2,12.9,5.1,16.4,11.7c-0.4,2.1-2,3.6-2.9,5.4c-0.2,0.6-2.1,0-1.2,1.5
	c-0.8,2-2.7,3.1-3.9,4.8c-1.2,0.8-2.3,1.6-2.6,3.2C56.6,243.1,55.9,246.2,52.9,247.4z"/>
<path class="st82" d="M68.4,226.5c-3.8-5.7-8.9-9.7-15.7-11.2c-11.2-0.5-20.4,3.2-26.9,12.7c-2.9,4.3-4.4,8.9-4,14.1
	c0.1,1.7,1,3.6-0.3,5.3c-2,2.2-3.4,0.9-4.7-0.8c-2.2-9.8,1.2-18.1,6.7-25.9c2-2,4.1-4.1,6.1-6.1c3.4-2.1,6.8-4.1,10.1-6.2
	c1.7-1.1,3.3-2.3,3.6-4.5c0.3-1.9,1.2-2.5,3-2.4c1.7,0.1,3.3,0,3.8,2.2c0.6,2.9,2.7,4.4,5.2,5.5c5.8,0.9,9.5,5.1,13.6,8.7
	c1.7,1.8,3,3.9,4.6,5.8c4.8,6.7,6,14.2,4.7,22.2c-0.3,1.1-1.1,1.8-1.8,2.6c-1.5-0.1-3.2,0.5-4.2-1.2c-0.4-0.5-0.8-1.1-0.7-1.8
	c1.3-6.1-0.2-11.7-3-17.1C68.4,227.8,68.5,227.1,68.4,226.5z"/>
<path class="st83" d="M21.5,247.4c-3.2-10.2,0.3-18.6,7.7-25.5c6.6-6.2,14.3-9.3,23.5-6.6c-3-0.2-3.9,2.3-5.3,4.2
	c-1,0.4-1,1.2-0.9,2.1c-2.3,0.8-1.5,3.5-3.1,4.8l0,0c-1.1,1.5-3.2,2-3.9,3.9c-0.1,0.9-0.2,1.9-1.3,2.2c-2.2,1.3-3,3.9-4.6,5.7
	c-0.2,1.2-1.5,1.4-2.1,2.3c-0.2,0.4-0.5,0.9-0.6,1.3c-0.5,1.9-3.7,3.1-2.7,4.8c1.2,2.1,4.2,0.5,6.4,0.9c0.8-0.7,1.6-1.8,3-0.9
	c2.3,1.8,4.2,1.2,5.8-1.1c1.2,0.2,1.4,1.4,2.1,2c1.6,0,3.3,0,4.9,0c-1.6,1.9-3.7,1-5.5,0.9C37,248,29.2,249.6,21.5,247.4z"/>
<path class="st84" d="M137.5,248.5c-4-0.1-8-0.1-12.1-0.2c-0.3-0.3-0.6-0.6-0.9-0.9c-1.3-1.3-2.2-2.7-2.7-4.5
	c0.7-3.9-0.6-7.4-2.6-10.8c0.6-2.2,2.4-3,4.4-3.7c6.4,1,12.3,3.1,16.4,8.5c0.7,1.3,1.1,2.7,1.4,4.2c0.3,1.8-0.1,3.4-1,4.9
	c-0.6,1.1-1.7,1.6-2.8,2.1L137.5,248.5z"/>
<path class="st85" d="M68.4,226.5c5.2,6.2,6.2,13.2,4,20.8c-4.6,1.9-9.4,0.2-14,0.9c-0.3-0.2-0.2-0.8-0.6-0.8
	c-0.2,0-0.2,0.5-0.2,0.8c-1.6-0.3-3.4,1-4.7-0.8c1.5-2.3,3.1-4.6,4.6-6.9c1-1,1.9-2,2.9-2.9c0.1-2.7,2.4-3.5,4.1-4.8
	c-0.1-0.7,0.5-0.9,0.9-1.2C65.3,229.2,66.4,227.6,68.4,226.5z"/>
<path class="st86" d="M42.5,328.4c0-0.3,0-0.7,0-1c-1.8-2.1-1.5-4.7-1.5-7.1c-0.1-5.5-0.1-11,0-16.5c0-3.4-1.3-4.8-4.7-4.8
	c-5.7,0.1-11.3,0.1-17,0c-2,0-4,0-5.7-1.4c0-0.3,0-0.6-0.1-0.9c14.6-0.1,29.2-0.1,43.8-0.2c15.1-0.1,30.2-0.2,45.3-0.2
	c0,0-0.1,0.4-0.1,0.4c-1.3,3.1-4.1,2.1-6.4,2.2c-8,0.3-7.9,0.2-8.1,8.4c-0.1,6.4,0.8,12.8-0.7,19.2c-0.3,0.6-0.8,0.9-1.4,1.1
	c-0.6-0.2-1-0.7-1.3-1.2c-1.4-6.9-0.4-13.9-0.7-20.9c-0.2-6.1-0.4-6.5-6.5-6.5c-9,0-18,0.1-26.9-0.1c-4.1-0.1-5.5,1.5-5.5,5.6
	c0,7.5,0.6,15-0.4,22.4C44.1,327.8,43.7,328.6,42.5,328.4L42.5,328.4z"/>
<path class="st87" d="M125.4,247.5c0,0.3,0,0.6,0,0.9c-15.4-0.1-30.7-0.1-46.1-0.2c-0.6-0.6-0.8-1.3-0.8-2.1c0-1.5-0.1-3.1,0.1-4.6
	c0.6-1.7,0.4-3.6,1.6-5c3.9,1,8.3,0.1,11.8,2.9c-0.2,3.1-1.8,5.3-4.1,7c2-0.2,4.4-0.2,6.8-0.3c5.2,0.1,10.4-0.1,15.6-0.3
	c2.8,0.3,5.6,0.3,8.4,0C121,246.2,123.4,245.9,125.4,247.5z"/>
<path class="st88" d="M122.4,268.5c1.7,2,2.9,4.2,1.1,6.7c-1.9,2.7-4.4,2.6-7.1,1.3c-1.8-2-2.7-4.1-1-6.6
	C117.3,267.5,119.8,267.4,122.4,268.5z"/>
<path class="st89" d="M97.5,272.6c-0.4,2.8-1.8,4.7-4.8,4.8c-3.2,0.1-5-1.9-5-4.9c0-2.9,2.2-4.6,4.9-4.6
	C95.3,267.9,97.1,269.7,97.5,272.6z"/>
<path class="st90" d="M16.6,272.8c-0.3,2.9-1.8,4.6-4.7,4.6c-3,0-4.7-2-4.8-4.7c-0.2-3.1,2-5.1,5-5
	C14.7,267.9,16.4,269.9,16.6,272.8z"/>
<path class="st88" d="M57.1,257.6c-0.6,2.6-1.8,4.8-4.8,4.7c-2.8,0-4.8-1.5-4.8-4.6c0-3.2,1.7-5.2,4.8-5.1
	C55.1,252.8,56.7,254.7,57.1,257.6z"/>
<path class="st89" d="M30.2,257.4c-0.7,2.9-2,5-5,4.9c-3.1-0.1-4.9-2-4.7-5.2c0.2-2.9,2.1-4.6,5-4.5C28.5,252.7,29.6,255,30.2,257.4
	z"/>
<path class="st88" d="M83.7,257.4c0,2.8-1.3,4.8-4.2,4.9c-3,0.1-5-1.5-5-4.8c0-3.1,1.8-4.7,4.5-4.8
	C81.7,252.6,83.6,254.2,83.7,257.4z"/>
<path class="st90" d="M134.4,252.5c3.1,1.9,4.5,4.7,2.3,7.8c-2.3,3.1-5.4,2.6-8.1,0C128.1,254.1,128.6,253.4,134.4,252.5z"/>
<path class="st89" d="M43.6,272.8c-0.3,2.9-1.8,4.6-4.8,4.6c-3.2,0-4.9-2.2-4.8-5.1c0-2.6,1.9-4.4,4.5-4.4
	C41.4,267.9,43.3,269.6,43.6,272.8z"/>
<path class="st91" d="M24.8,283.2c3.8,0.1,5.4,2.1,5.3,4.8c-0.1,3-2.2,4.7-5.4,4.5c-3-0.2-4.4-2.1-4.2-5
	C20.8,284.5,22.7,283.3,24.8,283.2z"/>
<path class="st88" d="M110.6,257.6c0,3-1.9,4.7-4.6,4.7c-3,0-4.8-1.9-4.7-5.1c0.2-3.1,2.1-4.6,4.8-4.4
	C109,252.8,110.7,254.5,110.6,257.6z"/>
<path class="st88" d="M70.5,272.9c-0.5,2.7-2,4.5-4.9,4.5c-2.9-0.1-4.8-1.9-4.7-4.7c0-3,2-5.1,5.1-4.8
	C68.6,268.1,70.4,269.9,70.5,272.9z"/>
<path class="st92" d="M52.3,283.3c3.2,0,4.7,1.9,4.6,4.7c-0.1,2.8-1.8,4.6-4.9,4.5c-3-0.1-4.6-1.8-4.5-4.8
	C47.6,284.7,49.4,283.3,52.3,283.3z"/>
<path class="st92" d="M78.7,283.3c3.3,0,5,1.4,4.9,4.5c0,2.9-1.5,4.7-4.5,4.7c-3,0-4.6-1.6-4.7-4.6
	C74.4,284.9,76.1,283.5,78.7,283.3z"/>
<path class="st93" d="M109.5,284.4c2.1,5.8,0.9,7.6-5.1,8.1c-2.9-1.6-4.1-4-2.5-6.9C103.7,282.4,106.7,282.7,109.5,284.4z"/>
<path class="st94" d="M57.6,248.2c-0.8-1-2.2-1.7-1.4-3.3c0.1-0.2,1-0.4,1.3-0.2c1.6,0.8,1.1,2.2,0.9,3.5c0,0-0.4,0.1-0.4,0.1
	L57.6,248.2z"/>
<path class="st95" d="M79.3,246.5c0,0.6,0,1.1,0.1,1.7c-0.9,0.1-1.8,0.2-2.7,0.3c0.2-0.7,0.5-1.4,0.7-2.1
	C78,246.3,78.6,246.1,79.3,246.5z"/>
<g>
	<path class="st96" d="M1601.4,337c-25.5-9.3-34-50.4-26.1-70.5c5.2-13.5,14.9-21.3,29.3-23c3.4-0.4,6,0.8,7.7,3.5
		c3.1,4.8,3,10.2,1.6,15.4c-0.7,2.5-2.3,3.8-5.7,2.9c-13.1-3.4-21.6,2-23.5,15.5c-2,14.6,0.4,28.6,8.6,41.1
		c7.5,11.4,17.7,11.8,25.6,0.7c8.1-11.3,12-24.5,15.3-37.7c8.2-32.9,15.9-66,24.1-98.9c4.8-19.2,11.1-38,21-55.4
		c3.5-6.1,7.5-11.8,13.8-15.4c0.6-0.3,1.5-0.6,1.6-1.1c1.3-5.7,5.6-6.3,10.4-6.2c6.3,0.2,11.2,3,14.8,8c2.4,3.3,3.3,7.2,3.2,11.3
		c-0.5,26-0.1,52,1.2,77.9c0.2,4.4,1.4,5.8,5.5,3.9c0.9-0.4,1.9-0.6,2.8-0.9c5.5-1.9,7.9-1.1,9.1,3c1.4,5.3-1.2,9.9-6.2,10.8
		c-9.6,1.8-9.5,1.8-8.6,12.1c1.7,17.7,3.7,35.4,9.3,52.5c1.2,3.6,2.5,7.2,4.6,10.5c4.4,6.8,10,7,14.7,0.4c3.6-5,5.9-10.8,8.3-16.5
		c3.1-7.4,6.3-14.9,7.2-22.8c1.3-11.9,1-23.9-4.9-34.9c-0.7-1.3-0.8-2.5-0.5-3.8c1-5.3,9-12.1,14.4-12.4c3.3-0.2,4.7,1.8,5.8,4.5
		c3.6,8.7,5,17.8,6.9,27.3c2.3-1,2.7-3.1,3.4-4.8c3.3-7.4,7.6-14.1,13.8-19.4c10-8.6,21.7-6.6,28.2,4.8c2.9,5.2,4.1,10.9,5.2,16.6
		c0.3,1.5,0.3,3,1.5,4.5c1.9-4.1,3.7-8.2,5.7-12.2c3.6-7.1,8.1-13.4,14.8-17.9c10.3-7,19.5-4.7,25.2,6.4c4.8,9.4,5.6,19.8,6.7,30
		c1.4,12.4,2.1,24.9,3.1,37.3c0.1,1.3,0.3,2.7,0.6,3.9c0.8,3,1.1,6.6,4.8,7.5c3.7,0.9,6.7-1.2,8.5-4.1c6-9.7,12.6-18.8,10.6-31.7
		c-1.8-11.9,1.5-23.5,7.6-34c7.5-12.8,24.4-20.2,37.6-16.9c11.4,2.8,16.7,11.8,13.7,23.1c-3.4,13-12.6,20.8-23.8,26.8
		c-1.6,0.9-3.3,1.5-5,2.3c-6.9,3.1-6.9,3.1-4.3,10.5c2.1,6,5.1,11.6,8.9,16.7c5.7,7.5,12.8,9.4,21.7,5.9c5.9-2.3,10.7-6.2,14.3-11.3
		c7.8-11,13.4-22.7,13-36.9c-0.6-19.8,2.6-39.5,4.4-59.2c0.8-9.3,1.8-18.6,1.6-27.9c-0.1-2.3,0-4.8-1.1-6.8
		c-2.2-3.8-0.3-6.1,2.9-7.5c6.2-2.8,12.4-2.3,18,1.6c5.4,3.8,8.1,8.9,7.5,15.8c-2.8,34-8.5,67.8-8.5,102c0,8.2,0,16.3,2,24.3
		c1,3.7,1.9,7.9,6.5,8.6c4.7,0.7,7.1-2.9,9.4-6.2c7.7-11,10.5-23.5,10.9-36.7c0.3-8.3,2.3-16.5,3.6-24.7c0.6-3.3,1.1-6.7,0-9.9
		c-1.1-3.1,0.2-4.8,2.5-6.3c4.3-2.8,9-4.3,14.1-4.2c5.6,0.2,7.5,2.3,6.7,7.9c-1.7,13-3.6,26-5.2,39.1c-1.2,9.4-1.2,18.9-0.6,28.4
		c0.2,3.4,1.3,6.6,3.7,9.1c3.5,3.6,8.6,4,12,0.3c6.1-6.6,9.3-15,12-23.3c0.6-1.8-0.4-4.2-0.8-6.3c-2.1-12.6,0.4-24.6,6-35.8
		c7.2-14.4,24.8-23,39.2-19.2c11.1,2.9,16.3,11.7,13.5,22.8c-2.8,11.3-10.3,18.8-19.8,24.6c-3.4,2.1-7,4.2-10.7,5.2
		c-5,1.3-5,3.6-3.4,7.8c2.5,6.6,5.3,12.9,9.6,18.5c5.9,7.7,13.6,9.7,22.5,5.8c9-4,14.7-11.3,19.2-19.6c3.8-7.2,6.4-15,8.8-22.8
		c2.3-7.3,2.2-7.3,10.3-5.9c-4.7,17.3-9.7,34-22.3,47.8c-18.4,20-51.4,15.2-63.9-5.7c-0.8-1.4-1.9-2.7-3-4.3
		c-6,10.4-10.4,23.3-24.3,23.1c-11.9-0.1-22.8-5.1-27.8-18.5c-2.3,3.3-4.1,6.2-6.2,8.9c-7.6,9.8-14.4,11.6-26,7.3
		c-7.9-2.9-12.8-8.8-16.3-16c-1.9-3.9-3.1-8.1-4.7-12.4c-9.1,15.1-19,29.3-38.8,30.3c-19.1,0.9-33-7.4-41.9-25.4
		c-1.6,2.9-2.8,5.1-4,7.3c-3.2,5.5-6.8,10.6-12.2,14.3c-10.8,7.4-23.9,4.6-30.6-6.7c-4.6-7.8-6.3-16.5-6.8-25.3
		c-0.6-11.6-0.8-23.3-1.3-35c-0.1-3.3-0.4-6.7-1-9.9c-0.5-2.7-1.8-5.2-4.7-6c-2.8-0.7-4.9,0.9-6.5,2.9c-2.1,2.6-4,5.3-5.7,8.2
		c-7.7,13.4-12.2,27.7-11.9,43.2c0,2.5,0.1,5-0.1,7.5c-0.2,3,1.2,7-2.6,8.4c-4.3,1.7-8.9,1.3-12.9-1.4c-2.5-1.6-2.9-4-2.7-7
		c1-17.2,0.3-34.3-4.7-50.9c-1.1-3.7-1.7-8.5-6.4-9.2c-4.5-0.7-7.1,3.1-9.4,6.4c-8.5,11.9-14.2,24.8-13.3,39.9
		c0.6,9.8,0.6,19.6,1.3,29.4c0.3,4.7-1.5,7.1-5.8,8.5c-2.5,0.8-4.9,1.9-7.7,1.9c-7.1,0-8.9-1.7-8.9-8.6c0-4.1,0-8.2,0-13.3
		c-2.7,5.2-4.7,9.7-7.7,13.6c-10.3,13.7-18.1,13.8-32.6,4.1c-5.6-3.7-9.2-9.5-12.4-15.5c-8.1-15.1-11.2-31.6-14.1-48.2
		c-0.7-4.1-1.5-8.2-1.9-12.3c-0.3-2.1-1.2-2.8-3.2-2.8c-8.9,0.2-17.6-0.8-26.3-2.3c-3-0.5-4,0.3-4.7,3.2
		c-4.2,17.8-8.7,35.5-14.8,52.8c-4.1,11.5-8.8,22.6-14.6,33.3c-6.3,11.7-14.1,21.6-27.5,25.8C1608.8,337,1605.1,337,1601.4,337z"/>
	<path class="st96" d="M1473.3,279c-2.1,2.9-3.9,5-5.5,7.4c-6.2,9.4-15.4,12.8-26,13.5c-7.5,0.5-13.1-2.9-17.4-8.9
		c-7.4-10.3-8.6-21.9-6-33.9c3.1-14.5,7.7-28.2,21.6-36.7c11.5-7,23.2-9.7,36.6-4.1c0.6-11,1.6-21.7,1.8-32.5
		c0.2-13.1,1.5-26.3-0.9-39.4c-0.4-2,0.7-3.1,2-4.2c6-5,12.6-5.4,19.6-2.3c6.3,2.8,7.9,8.1,7.5,14.4c-1.3,17.8-4.3,35.3-6.6,53
		c-2.8,21.9-7.7,43.6-6.5,66c0.4,6.5,1.5,12.9,3.4,19.1c2.4,7.8,8.1,9,13.8,3c5.9-6.2,9-14,11.7-21.9c2.4-6.9,4.1-14,6.1-21.1
		c1.1-3.9,4.5-5.7,8.3-4.5c1.7,0.6,1.3,1.6,1,2.7c-3.8,16.1-8.1,32.1-17.5,45.9c-13.1,19.2-32.1,17.5-42.3-3.5
		C1476.1,287.5,1475,283.5,1473.3,279z"/>
	<path class="st96" d="M2065.4,161.1c0-8.4,3.8-11.8,13.1-13c8.4-1.1,11.8,2.6,14.7,12.1c2.5,8.2-0.7,13.3-8.6,15.8
		c-2.4,0.7-4.8,1.2-7.3,1.6c-6.3,1.2-7.7,0.1-8.9-6.1c-0.4-1.9-1.4-3.7-2.1-5.5C2065.5,164.2,2065.3,162.4,2065.4,161.1z"/>
	<path class="st96" d="M1551.5,134c-4.9,0.1-9-2.9-10.3-7.3c-1.4-4.8,0.6-10.2,4.5-12.7c9.3-6,17.5-2.2,18,8.9
		c0.5,10.4-3.2,19.9-9.6,28.2c-1.1,1.5-2.7,4.1-5.2,2.1c-2.4-1.9,0-3.5,1-5c1.9-3.3,4.1-6.5,4.5-10.4
		C1554.7,135.4,1555.5,132.5,1551.5,134z"/>
	<path class="st96" d="M1975,172.1c3.7-0.4,6.4,0.9,6.8,4.8c0.3,4.1,0.3,8.5-4.4,10.6c-8,3.6-16.3,6.7-21.7,14.3
		c-1,1.4-2.3,1-3.6,0.6c-1.3-0.5-1.8-1.5-1.4-2.8c3.4-10.6,7.4-20.7,18.1-26.2C1970.7,172.3,1972.8,171.7,1975,172.1z"/>
	<path class="st97" d="M1697.4,122.3c0.6,14.9,1.5,28.3,1.7,41.7c0.2,15.5,1.4,30.9,2.6,46.3c0.2,2.7,0,3.8-3.1,3.9
		c-7.7,0.2-15.3,0.1-23-0.4c-2.3-0.1-3.9-0.6-3.1-3.6c6.4-26.1,10.6-52.8,19.8-78.2C1693.5,129.2,1694.6,126.2,1697.4,122.3z"/>
	<path class="st97" d="M1946.4,254.9c0.1-11.5,0.8-22.8,6.9-33.1c2-3.4,4.8-5.9,8.3-7.7c3.3-1.7,5.5-0.7,6.5,2.8
		c0.8,2.9,1.5,5.8,0.8,8.9c-2.6,11.5-8.3,20.9-18.1,27.7C1949.7,254.3,1948.5,255.5,1946.4,254.9z"/>
	<path class="st97" d="M2131.4,249.3c0.5-7.5,1.3-14.9,4-22c2.2-5.5,5.3-10.4,10.8-13.2c3.9-2,5.7-1.1,7,3.1c1.2,3.9,1.3,8,0,11.8
		c-3.2,9.3-8,17.6-16.1,23.4c-1.5,1.1-3.3,3.3-5.2,2.1C2130.5,253.5,2131.6,251.1,2131.4,249.3z"/>
	<path class="st97" d="M1442.2,266.4c0.7-12.3,3.5-24,10-34.6c3.9-6.4,8.8-11.9,17.3-11.7c5.8,0.1,7.1,1.5,6.7,7.1
		c-0.9,11.8-1.6,23.6-4.7,35c-2.1,8-5.7,15.3-11.3,21.4c-5.7,6.2-10.5,5.5-14.5-1.9C1443.1,276.9,1441.7,271.9,1442.2,266.4z"/>
</g>
<path class="st12" d="M258.6,296.6c13.9,0,27.9,0,41.8,0c0.7,0.7,1.3,1.6,1.3,2.6c0.1,9.2,0.8,18.4-0.4,27.6
	c-0.3,0.6-0.7,1.1-1.3,1.4c-6.5,1.4-13.1,0.4-19.7,0.6c-5.6,0.2-11.2,0.1-16.8,0c-1.8,0-3.7,0.1-5.2-1.1c-1.1-1.4-1.1-3.1-1.1-4.7
	c-0.1-7.1,0-14.2,0-21.3C257.1,299.8,257.1,298,258.6,296.6z"/>
<path class="st11" d="M215.6,296.7c10-0.1,19.9-0.2,29.9-0.2c4,0.1,8,0.1,11.9,0.2c1,10.4,0.7,20.7,0.2,31.1
	c-1.7,1.4-3.7,1.4-5.7,1.4c-10.3,0.1-20.5,0.1-30.8,0c-2,0-4-0.1-5.6-1.6C215.6,317.2,215.6,306.9,215.6,296.7z"/>
<path class="st23" d="M344.5,296.6c8.3,0,16.7,0,25-0.2c3-0.1,4.1,0.9,4,4c-0.2,9-0.1,18-0.2,27c-9.7,0.9-19.3,0.8-29,0
	c-0.9-0.8-1.2-1.9-1.3-3.1c-0.2-8.1-0.1-16.1,0-24.2C343.2,298.8,343.5,297.6,344.5,296.6z"/>
<path class="st98" d="M315.4,247.6c-5.1,1.1-10.1,1-15.2,0.1c-2.5-6.5-1.1-13.2-1-19.8c1.7-4.5,5.1-8,7.9-11.8
	c3.3,0.4,2.6-2.1,2.8-4c1.6-1.4,1.9-5.4,5.5-2.7c1.1,1.9,1.4,4.1,1.4,6.2c0.1,8.8,0.1,17.6,0,26.4
	C316.9,244,317.1,246.1,315.4,247.6z"/>
<path class="st99" d="M331.7,226.4c2-1.2,4-2.4,6-3.7c1.7-1.5,3.4-2.9,5.8-1.5c0.3-0.1,0.7-0.1,1-0.2c1.3-0.2,2.6-0.4,3.9-0.6
	c1.2-0.7,2.3-1.1,3.1,0.5c-3.1,3.7-5.8,7.6-8,11.9c0,0.8-0.4,1.4-1.2,1.6c-2.3,1.4-3.4,3.6-4,6.1c-1.4,0.5-1.9,1.9-2.8,2.9
	c-0.7,0.9-1.3,1.9-2,2.8c-0.2,1.2-1.4,1.4-2.1,2.2c-1-0.1-2-0.1-3-0.2C323,240.3,324.5,230.2,331.7,226.4z"/>
<path class="st100" d="M331.7,226.4c-6.7,6.4-5.8,14-3.3,21.8c-1.3,0-2.6,0-3.9,0c-2.5-1.2-5.1-2.3-5-5.7c0.5-7.7-0.1-15.4,1.1-23
	c4.9-3.4,7.9-8.3,10.5-13.5c0.3-0.5,0.8-1,1.2-1.4c1.3,5.4-0.1,10.2-2.7,14.9C325.5,223.3,331.4,224,331.7,226.4z"/>
<path class="st101" d="M299.5,257.4c-0.9,2.9-2.3,5-5.2,5c-3.1,0-5.1-2.1-4.8-5.2c0.3-2.7,2.2-4.7,5.1-4.5
	C297.5,252.8,298.8,255,299.5,257.4z"/>
<path class="st102" d="M353.2,257.6c-0.8,2.5-1.9,4.9-5,4.8c-3.1-0.2-4.9-2.1-4.7-5.3c0.2-2.9,2.1-4.6,5-4.5
	C351.5,252.7,352.6,255.1,353.2,257.6z"/>
<path class="st103" d="M326.3,257.4c-0.9,2.7-2,5.1-5,5c-3.1-0.1-4.9-2.1-4.7-5.2c0.2-2.8,2.1-4.6,5-4.5
	C324.6,252.7,325.5,255.1,326.3,257.4z"/>
<path class="st102" d="M335.3,277.5c-3.4,0-5.2-2.1-5.4-4.9c-0.2-2.8,2-4.7,4.7-4.8c2.8-0.1,4.5,1.9,4.8,4.7
	C339.7,275.5,338,277.1,335.3,277.5z"/>
<path class="st101" d="M308.1,267.6c2.7,0.5,4.3,2.2,4.4,5.1c0.1,3-1.5,4.7-4.5,4.7c-3,0.1-4.7-1.9-4.9-4.6
	C303,269.8,304.9,268,308.1,267.6z"/>
<path class="st104" d="M269.5,262.2c-3.3,0.8-5.5-0.6-6.7-3.6c-0.9-2.2,0.4-3.8,2.1-5.1c3.3-2.4,6.5-0.4,7.6,4.9
	C271.5,259.7,270.5,260.9,269.5,262.2z"/>
<path class="st101" d="M370.4,256.7c-0.2-2.4,1.8-4,4.5-4c2.7-0.1,4.7,1.4,4.7,4.5c0,2.9-1.1,5-4.1,5.1
	C372.5,262.3,370.4,260.9,370.4,256.7z"/>
<path class="st102" d="M322.1,283.4c2.6-0.2,4.1,1.9,4.1,4.5c0,3.1-2.2,4.7-5.3,4.6c-3-0.1-4.5-1.9-4.4-4.8
	C316.7,284.6,318.6,283.4,322.1,283.4z"/>
<path class="st102" d="M294.8,292.5c-3.8,0-5.2-2.1-5.2-5c0-3,2.2-4.1,5.1-4.1c3.2,0,4.6,2.1,4.5,4.7
	C299.1,290.7,297.6,292.7,294.8,292.5z"/>
<path class="st103" d="M267.4,292.5c-3.2,0.2-4.7-1.9-4.8-4.8c-0.1-3,2-4.2,4.9-4.3c3.2-0.1,4.7,1.8,4.7,4.5
	C272.3,290.5,270.7,292.6,267.4,292.5z"/>
<path class="st103" d="M361.4,277.5c-2.5-0.3-4.6-1.9-4.7-4.5c-0.1-2.9,1.9-5.2,4.9-5c2.5,0.1,4.8,1.8,4.7,4.8
	C366.2,275.4,364.9,277.5,361.4,277.5z"/>
<path class="st102" d="M276.4,271.8c-0.1-2.5,1.9-4.1,4.6-4.1c3.1,0,4.7,2.2,4.5,5.3c-0.1,3-1.9,4.5-4.8,4.3
	C277.6,277.2,276.4,275.3,276.4,271.8z"/>
<path class="st105" d="M257.4,327.5c0-10.3,0-20.6,0-30.9c0.4,0,0.8,0,1.2,0c0,10.3,0,20.6-0.1,30.8c0.4,0.5,0.7,1,1,1.6
	c0.6,13.6,1.4,27.1-0.4,40.7c-0.2,0.2-0.4,0.5-0.7,0.7c-0.3,0-0.7,0-1,0c-0.2-0.2-0.4-0.5-0.7-0.7c-1-1.8-0.9-3.8-0.9-5.8
	c0-9.9,0-19.9,0-29.8C255.9,331.8,255.7,329.4,257.4,327.5z"/>
<path class="st102" d="M349.2,283.4c2.3-0.1,3.9,1.7,3.8,4.2c-0.1,2.8-1.8,5-5.1,4.9c-3-0.1-4.5-1.9-4.4-4.9
	C343.7,284.5,345.6,283.3,349.2,283.4z"/>
<path class="st106" d="M344.5,296.6c0,10.3,0,20.6-0.1,30.8c-0.3,0-0.6,0-0.9,0c-0.5-0.4-0.8-0.9-1.1-1.5
	c-1.1-6.7-0.4-13.5-0.5-20.3c-0.2-6.3-0.4-6.6-6.8-6.7c-8.8,0-17.5,0-26.3,0c-2.3,0-4.7,0.2-6.8-0.9c-0.6-0.4-0.8-0.9-0.5-1.6
	C315.8,296.6,330.2,296.6,344.5,296.6z"/>
<path class="st107" d="M379.9,288.1c-0.6,2.3-1.8,4.4-4.8,4.3c-3,0-4.6-1.6-4.6-4.6c0.1-3.3,2.1-4.5,5.2-4.5
	C378.7,283.4,379.6,285.3,379.9,288.1z"/>
<path class="st108" d="M295.4,239.5c0.1,2.7,0.3,5.4,0.4,8c-4.1,1.6-8.4,0.8-12.6,0.8c0-0.3,0-0.5-0.1-0.8c0.2-0.2,0.3-0.4,0.5-0.5
	c3.5-0.7,6.4-2.2,8.3-5.4C292.7,240.4,293.5,239,295.4,239.5z"/>
<path class="st109" d="M301.5,296.5c0,0.3,0,0.6,0,0.9c0.5,0.6,1.1,1.3,1.1,2.2c0.4,9,1.3,18.1-0.5,27.1c-0.4,0.6-0.9,0.8-1.6,0.8
	c0-10.3,0-20.6-0.1-30.9C300.8,296.6,301.1,296.5,301.5,296.5z"/>
<path class="st110" d="M344.5,327.5c9.6,0,19.3,0,28.9,0c0,0.4,0,0.7,0,1.1c-9.6,0-19.3,0-28.9,0c-0.2-0.2-0.3-0.4-0.2-0.7
	C344.3,327.6,344.4,327.5,344.5,327.5L344.5,327.5z"/>
<path class="st111" d="M319.4,242.5c1.7,1.9,3.4,3.8,5,5.7c-2.1,0-4.1,0-6.2,0C318.3,246.2,316.4,243.8,319.4,242.5z"/>
<path class="st112" d="M342.3,248.4c0.2-1,0.4-2,1.6-2c1.1,0,1.5,1,1.7,2C344.5,248.4,343.4,248.4,342.3,248.4z"/>
<path class="st113" d="M331.4,248.5c0.1-1.3,0.7-2.1,2.1-2.2c0.4,0.7,0.9,1.4,1.3,2.1C333.6,248.4,332.5,248.4,331.4,248.5z"/>
<g>
	<path class="st114" d="M1019.3,247.4c1.6-15.9,7.2-30.7,13.6-45.2c0.6-1.4,1.5-2.1,2.9-2.4c7-1.3,14-2.6,21.6-4
		c-3.3,10.3-7.2,19.8-9,29.1c5-4.6,10.3-9.6,15.6-14.5c5-4.6,10.1-9.2,16.4-12.1c5.3-2.4,10.8-4.1,16,0.1c5,4,5.4,9.7,4.4,15.5
		c-1.4,8.2-4.3,16-7.1,23.9c-2.2,5.9-4.3,11.9-6.1,17.9c-0.8,2.8-1.3,6.2,1.8,8.2c2.8,1.8,5.6,0.5,7.9-1.3
		c8.2-6.2,16.3-12.1,17.8-23.9c1.5-11.7,6-22.8,10-33.9c1-2.7,2.3-3.9,5.2-4.4c7.1-1.2,14.2-2.9,22.1-4.5
		c-4,12.8-7.7,24.6-11.4,36.5c-2,6.2-3.5,12.5-4.2,19c-0.4,3.2-0.2,6.6,2.8,8.5c2.9,1.8,6,0.5,8.4-1.4c6-4.8,11.9-9.1,13-18.2
		c2-15.4,10.8-27.4,23-36.7c7.6-5.8,16.2-8.2,25.8-7.2c13.8,1.5,20.3,14.7,13.1,26.6c-2.8,4.5-6.7,7.8-11.1,10.6
		c-7.6,4.9-16,8.3-24.6,10.8c-3.8,1.1-4.1,2.5-2.9,5.9c4.6,13.4,18.1,18.6,30.7,11.1c11.5-6.9,19.7-17.3,27.6-27.9
		c1.3-1.8,0.5-2.5-1-3.4c-5.5-3.3-6.6-8.2-5.4-14.2c2.2-10.9,8.4-18.5,16.5-19.7c6.6-1,9.8,1.8,9.7,8.5c-0.1,5.5-2.5,10.6-3.9,16.3
		c6.3-0.5,10.9-3.5,15.2-7.3c4.6-4.2,8.3-9.2,11.1-14.7c2.1-4.1,5.9-2.7,8.8-2.4c2,0.2,0.4,2.4,0,3.7c-4.6,13.2-9.3,26.3-13.9,39.5
		c-1.5,4.4-2.7,8.9-2.4,13.7c0.4,6.8,5.4,9.8,11.5,6.7c1.2-0.6,2.3-1.4,3.3-2.2c18.1-15.2,32.9-32.9,42.2-54.9
		c0.6-1.5,1-3.1,3.1-3.5c5.7-1,11.4-2.1,17.2-3.1c2.8-0.5,4.3,0,2.9,3.3c-3.1,7.5-1.5,14.5,3.1,20.7c12.1,16.5,6.6,31.3-3.9,43
		c-8.4,9.4-18.1,16.7-31.5,17.4c-6.1,0.3-11.6-1.3-16.2-5.3c-3-2.7-3.8-5.8-1.3-9.3c2.4-3.4,4.9-6.8,8-9.6c3.4-3,5.3-2.7,7.3,1.4
		c1.1,2.2,1.7,4.7,2.8,6.9c2.4,5.1,6.1,6.6,11.5,4.8c9.7-3.4,14.5-13.9,10.5-23.5c-3.7-8.9-10.3-16.3-13.7-26.1
		c-7.1,10.8-14.3,20.7-22.4,30c-7.9,9.1-16.9,17-26.8,23.9c-2.9,2-6,3.7-9.2,5c-12,5-21.9-1.4-22.4-14.5c-0.2-6.5,1.8-12.5,4.2-18.3
		c2.6-6.3,6.1-12.2,9.9-18.6c-4.9,1.5-9.1,3.5-13.7,4.2c-2,0.3-2.4,2.2-3.3,3.5c-9.8,14.6-21.5,27.5-36.1,37.6
		c-6.3,4.3-13.1,7.2-20.8,7.7c-17.5,1.2-26.7-4.9-33.3-22.2c-2.5,2.4-4.8,4.7-7.1,6.9c-5.2,4.9-10.6,9.6-17,13
		c-10,5.3-17.8,2.3-21.8-8.4c-1.1-2.9-1.6-6-2.4-9.2c-4.7,3.9-9.1,7.9-13.9,11.4c-6.1,4.5-12.6,8.2-20.4,8.6
		c-9,0.4-14.7-4.7-15.6-13.8c-0.6-6.4,0.7-12.6,2.7-18.7c2.4-7.4,5.3-14.7,7.9-22.1c0.8-2.3,1.5-4.8,2.2-7.2c0.4-1.5,0.2-3.1-1.2-4
		c-1.3-0.9-2.6-0.1-3.7,0.6c-4.5,2.6-7.7,6.8-11.6,10.2c-13.1,11.2-17.8,25.5-17.2,42.3c0.3,8,0,8-7.7,9.8c-3.1,0.7-6.2,1.2-9.2,2.2
		c-3.5,1.2-5.1,0.8-5-3.5c0.1-6.3-0.5-12.6-0.8-19c0-0.2-0.1-0.5-0.1-0.7c-0.2-1.9-0.1-3.9-0.2-5.8
		C1018.2,249.6,1018.3,248.3,1019.3,247.4z"/>
	<path class="st114" d="M703.9,220.5c-5.5,8.6-11.4,16.5-17.5,24.2c-8.7,10.9-18.7,20.4-30.1,28.3c-6.3,4.3-13.2,7.1-20.9,7.6
		c-17.4,1.1-26.1-4.7-33.2-22.4c-2.4,2.1-4.7,4.2-7,6.1c-12,10-25.2,16.7-41.3,16.2c-8.5-0.2-16.3-3.1-24-6.3
		c-5.4-2.3-10.8-4.4-16.1-6.7c-2.5-1.1-4.1-0.6-6.1,1.4c-4.4,4.8-9.4,9-15.8,10.9c-4.5,1.4-9.1,1.9-12.2-2.5
		c-2.9-4.2-1.9-8.7,0.7-12.6c4.8-7.3,12.5-10.3,20.6-12c3.9-0.8,6.1-2.6,7.9-5.9c4-7,4.9-14.8,5.5-22.6c1-12.8,1.3-25.6,5-38
		c4.5-15,12.4-27.5,24.9-37.1c8.5-6.5,18-9.8,28.9-8.9c14.7,1.3,25.6,11.5,27,26.1c1.3,14.1-3.2,26.2-13.9,35.9
		c-3.9,3.6-8.6,5.7-13.9,6.1c-11.7,1-18-7.6-13.6-18.7c7,3.5,11.9,2.5,16.5-3.7c6.1-8.3,7.6-17.6,5.5-27.5c-1.1-5.4-4.3-9.5-10-10.7
		c-6.1-1.3-11.6,0.2-15.7,5.4c-3.8,4.8-5.6,10.5-6.7,16.4c-2.5,13.4-3.2,27.1-6,40.5c-2.9,14.1-8.3,27-18.1,37.8
		c-0.6,0.7-1.6,1.2-1.5,2.9c11.9-0.6,22.6,4.2,33.4,8.3c16.4,6.1,30.7,3,43-9.3c1.9-1.9,2.8-3.8,3.2-6.5
		c2.5-18.5,12.2-32.5,27.8-42.3c6.4-4,13.6-5.2,21.1-4.5c14.6,1.4,21.2,15.3,13,27.5c-3.4,5.1-8.3,8.6-13.6,11.6
		c-7,4-14.4,6.9-22.1,9.1c-2.7,0.8-3.7,1.7-2.7,4.8c4.5,14.5,18.6,19.8,31.9,11.5c7.7-4.8,14.1-11.3,20.1-17.9
		c11-11.9,20.3-25.1,26.4-40.3c0.6-1.4,1.1-2.8,2.9-3.1c5.9-1,11.8-2.1,17.7-3.2c2.9-0.5,3.6,0.6,2.5,3.3
		c-3.2,7.7-1.4,14.8,3.3,21.2c11,15.1,7.3,29-2.7,41.1c-8.5,10.2-18.6,18.2-32.7,19c-6.1,0.3-11.6-1.2-16.2-5.3
		c-3-2.6-3.9-5.7-1.5-9.3c2.5-3.6,5.1-7,8.3-9.9c2.8-2.6,5.1-2.2,6.8,1.1c1.1,2.2,1.8,4.6,2.8,6.9c2.5,5.8,6.8,7.5,12.6,5.1
		c9.2-3.8,13.4-13.8,9.8-23.1c-1.8-4.5-4.6-8.5-7-12.6C708.5,229.5,706.4,225.2,703.9,220.5z"/>
	<path class="st114" d="M822.6,237.2c-4.7,5.6-8.5,10.6-12.7,15.3c-1.6,1.8-3.6,6-5.8,3.9c-1.8-1.7-1.5-6.2,0.3-9.3
		c0.2-0.4,0.7-0.7,1-1.1c11.1-12.6,19.8-26.7,26.5-42c1.3-3.1,3-4.7,6.4-5c4.3-0.4,8.5-1.4,12.7-2.4c4.1-1,5,0.3,3.7,4.2
		c-0.9,2.7-1.3,5.6-1.9,8.5c2.8,0.4,3.6-1.8,4.9-3.1c4.6-4.4,9.5-8.4,16-9.6c13.1-2.5,24,5.1,26.7,18.5c1.7,8.7,0.8,17.3-1.9,25.6
		c-4.8,14.8-13.4,26.9-26.7,34.9c-9.7,5.8-20.1,8.3-30.4,1c-2.4-1.7-2.6-0.4-3,1.6c-3.1,14-6,28-7.8,42.2c-0.4,3.1-1.4,4.2-4.5,4.5
		c-5.8,0.7-11.5,1.7-17.2,3c-3.1,0.7-3.7,0.2-3.2-3c3.4-20.7,7-41.3,11.3-61.8C818.9,254.8,820.6,246.5,822.6,237.2z"/>
	<path class="st114" d="M1019.3,247.4c0,1.4,0,2.7,0,4.1c-1.3,1.8,0.2,4.2-1,6l0-0.1c-6,5.2-12,10.5-18.1,15.6
		c-3.4,2.9-7.2,5.4-11.6,6.7c-8.9,2.7-15.6-0.6-18.4-9.5c-1.5-4.8-1.7-9.8-2-14.8c-1.8-0.1-2,1.5-2.7,2.4c-3.8,5-7.8,10-12.6,14.2
		c-7.4,6.6-15.9,11.5-25.9,7c-10.1-4.4-13.6-13.9-13.8-24.2c-0.6-21.1,9.6-36.9,25.8-49.2c6.1-4.7,12.9-8.3,20.6-9.6
		c8.3-1.4,15.3,0.5,19.8,8.1c1.2,2.1,2.2,2.3,4.2,1.2c4.7-2.8,9.6-5.3,14.3-8.1c2.5-1.4,4.9-1.8,8.1-1.2
		c-3.6,11.9-7.2,23.6-10.5,35.4c-2.1,7.3-4.4,14.7-4.4,22.4c0,2.9,0.2,5.8,3,7.4c3,1.7,6,0.6,8.4-1.3c4.4-3.6,8.4-7.5,12.6-11.3
		C1016.5,247.7,1017.4,245.9,1019.3,247.4z"/>
	<path class="st115" d="M1159.1,158.3c0.4,3.3,0,5.8-0.5,8.2c-2.8,13.7-15.5,19.3-27.7,12.1c-2.1-1.3-3.3-2.3-1.5-4.9
		c3.3-4.9,5.2-10.6,7.3-16.5C1144,161.8,1151.2,163.8,1159.1,158.3z"/>
	<path class="st97" d="M1182.4,233.7c0.6-7.6,2.4-15.5,7.2-22.4c1.4-2.1,3-4,5.1-5.4c5.8-4,11.5-1.7,12.2,5.3
		c0.8,7.6-1.8,14.1-7.5,19.2c-3.7,3.3-7.9,5.4-12.5,7.1C1182.2,239.2,1182.2,239.2,1182.4,233.7z"/>
	<path class="st116" d="M1018.4,257.5c0.5-2-1-4.3,1-6C1019.1,253.5,1020,255.7,1018.4,257.5z"/>
	<path class="st97" d="M624.4,235.1c0.8-9.2,2.6-17.3,7.7-24.2c1.5-2,3.1-3.9,5.3-5.3c5.6-3.5,10.8-1.3,11.6,5.2
		c1,7.6-1.5,14.1-7.2,19.3c-3.7,3.5-8.2,5.5-12.9,7.4C625.2,239.1,623.6,238.5,624.4,235.1z"/>
	<path class="st97" d="M876.7,230.6c-0.4,12-4.3,22.8-10.6,32.8c-2,3.3-4.6,6.2-8.1,7.9c-4.2,2.1-8.3,2.2-12.2-0.9
		c-3.7-2.9-5.2-6.1-3.8-11.2c3-10.7,4.8-21.7,8.3-32.3c1.6-4.7,4.2-8.7,8.1-11.7c7-5.3,13.8-3.3,17,5
		C876.7,223.7,876.7,227.1,876.7,230.6z"/>
	<path class="st97" d="M938.1,249c1.1-14.7,6.5-27.6,15.6-39.2c0.9-1.2,2.1-2.2,3.3-3.1c3.5-2.5,7.2-4.3,11.6-2.3
		c4.4,2,5.6,6.2,5.4,10.4c-0.6,16-6.1,30.2-16.6,42.3c-3.3,3.9-7.8,6.7-13.3,4.4C938.6,259.3,938.1,254.3,938.1,249z"/>
</g>
<path class="st74" d="M194.4,235.5c-0.6,1.6-1.1,3.2-1.7,4.8c-2.7,2.5-6.1,1.4-9.2,1.7c-3-1.3-3-5.4-6.1-6.6
	c-0.8-0.6-1.5-1.1-2.1-1.9c-0.3-1,0.2-1.8,0.8-2.6c1.7-1.2,3-3.1,5.5-2.3c1.3,1.7,2.6,0.3,4,0.1c3.4-0.3,6,0.9,7.9,3.7
	C194.4,233.3,194.6,234.3,194.4,235.5z"/>
<path class="st117" d="M181.6,228.6c-1.7,1-3.4,1.9-5,2.9c-0.4-5.2-2.5-9.3-7.2-11.9c-0.3-1.8,0.7-2.7,2.3-3.2
	c1.1,0.1,2.3,0.3,3.2-0.7c3.8-0.3,7,0.7,8.7,4.4C184.9,223.3,184.3,226.2,181.6,228.6z"/>
<path class="st118" d="M182.5,241.5c3.2-1.8,6.8-0.5,10.1-1.2c1.3,0.2,2.8,0.1,3.8,1.3c0.6,3.4-1.9,4.9-3.9,6.7c-1.4,0-2.8,0-4.2,0
	c-2.2-1.2-4.8-1.9-6.4-4.1C181.6,243.1,181.7,242.2,182.5,241.5z"/>
<path class="st119" d="M192.5,248.2c0.5-2.7,3.3-4.1,3.9-6.7c3.1,1.2,3.2,4.1,4,6.7C197.8,248.2,195.1,248.2,192.5,248.2z"/>
<path class="st120" d="M221.1,237.8c-0.5,1.3-1.5,1.7-2.7,1.6c-1.2-0.1-2.6-0.4-2.4-1.9c0.2-1.6,1.8-1,2.9-1.1
	C219.8,236.4,220.9,236.4,221.1,237.8z"/>
<path class="st121" d="M194.4,235.5c-0.8-0.8-0.9-1.9-0.9-3c1.5,0.2,3.9-0.7,4.2,1.3C198,235.8,195.7,235.3,194.4,235.5z"/>
<path class="st122" d="M224.5,247c3-0.8,5-0.7,7.9-0.2C229.5,247.7,227.5,247.6,224.5,247z"/>
<path class="st123" d="M215.6,55.7c5.6,3,4.8,8.1,4.1,13.1c1,4.7-0.7,7.7-6.2,10.7c-1.5,1.1-1,2.4-0.2,3.5
	c4.5,6.6,2.2,11.9-3.8,16.5c0.4,1.1,0,2-0.7,2.7c-5.2,4.7-11.1,8.7-14,15.4c-4.2-7.6-2-14.9,5.2-18.1c1.4-0.8,2.5-1.9,3.7-2.9
	c0.2-0.1,0.3-0.1,0.3-0.1c-0.3-0.3-0.4-0.3-0.4,0.2c-1.2,0.9-2.3,2.1-3.7,2.8c-2.2,1-4.4,1.9-6.1-0.8c-1.4-2.4-0.5-7.1,1.6-8.6
	c1.1-0.7,2.5-0.9,3.6-1.7c1.8-0.8,3.3-2.1,4.6-3.5c0.4-0.5,0.7,0.3,0.2-0.1c-0.4-0.4-0.3,0.4-0.6,0.5c-1.2,1.4-2.8,2.3-4.4,3.1
	c-1.9,1.1-3.9,1.6-5-0.9c-1-2.3-0.7-4.7,1.2-6.4c1.9-1.6,4.1-2.8,5.5-4.9C205.6,69.4,210.6,62.5,215.6,55.7z"/>
<path class="st124" d="M201.5,99.5c-7.1,2.2-7.7,7.6-6.8,13.7c0.2,1.3,0.3,2.6,0.4,3.9c2.2,1.4,2,3.7,2,5.8
	c0.1,16.4,0.1,32.8,0,49.3c0,1.8,0,3.7-1.3,5.2c-1.9,0-3.8,0-5.6,0c-1.1-1.4-1.3-3-1.3-4.7c0-18.9-0.3-37.7,0.1-56.6
	c0.2-2,0.8-3.9,1-5.9c0.3-3.3-0.3-5.9-3.7-7.4c-1.9-0.8-3-2.5-4-4.3c0.1-1.3,1-1,1.8-0.9c1.9-0.3,4.3,2,5.5-0.1
	c1.3-2.2,0.4-4.8-1.3-6.9c-1.5-1.4-2.9-2.7-4.4-4.1c0.5-0.5,1-0.5,1.6-0.2c1.9,0.5,4.1,3.7,5.3,1.2c1.1-2.3,2-6.2-1.8-8.2
	c-1.6-0.9-3-2-4.6-2.9c-0.2-0.9,0-1.4,1.1-1c1.6-0.2,3.7,1.9,4.5,0.4c1.2-2.4,0.4-5.1-1.6-7.3c-0.6-1.1,0.5-1.5,0.9-2.1
	c0-0.5-0.1-1.1-0.1-1.6c-0.2-1-0.9-2.2,1-2.1c1.3,2,0.1,5.5,3.6,6.2c-1.2,2.2-0.9,4.3-0.7,6.8c0.4,4.4,1.8,4.9,4.8,2.1
	c0.8-0.7,1.6-1.1,2.5-1.4c0,2.8-2.4,3.8-4.2,5c-2.5,1.6-2.6,4-1.7,6.1c1.1,2.5,3.1-0.2,4.7,0.1c1.1-0.5,1.3,0.1,1.1,1
	c-1.5,2.1-5.2,1.3-5.8,4.1c-0.5,2.1-1.1,4.9,0.6,6.6c1.4,1.4,3.4-0.5,5.1-0.7C201.4,98.1,201.6,98.5,201.5,99.5z"/>
<path class="st125" d="M182.5,98.5c1,0.8,2,1.6,3.1,2.4c6.4,4.4,6.8,5.3,5,13.5c-4.7,0.3-7.4-3.7-11.2-5.2c-1.1-1-2.4-1.8-1.9-3.6
	C180.1,103.9,181.6,101.4,182.5,98.5z"/>
<path class="st126" d="M171.5,112.5c-1.1,0.9-2.3,1.7-3.2,2.5c-5.8-5.4-1.6-10.3,0.3-15.4c0.2-0.5,0.3-1.1,1-1.2
	c1.6,2.4,3.6,4.3,5.9,6c0,0.2,0,0.5,0,0.7C175.6,108.3,174.7,111.1,171.5,112.5z"/>
<path class="st127" d="M177.4,105.5c0.7,1,1.4,2,2.2,3.1c0.3,0.4,0.6,0.9,0.5,1.3c-2.2,5.5-4.6,11-8.7,15.5
	c-3.1-4.3-2.2-8.2,1.2-11.8c0.8-3,2.8-5.6,2.7-8.8l0.3-0.3C176.2,104.8,176.8,105.2,177.4,105.5z"/>
<path class="st128" d="M161.6,99.5c-1.7-2.2-1.9-4.4,0.2-6.6c1.1-1.2,2.1-2.6,1.7-4.4c0.4-1,0.7-2.1,1.1-3.1c2.1,0,3.8,1,5.6,2
	c2.8,1.5,3.2,3.2,0.5,5.2c-0.9-0.5-1.4,0-1.9,0.7C166.3,95.3,165.7,99.4,161.6,99.5z"/>
<path class="st129" d="M188.5,90.6c2.4,1.5,4.4,7.6,2.5,9c-2.7,2-4.6-0.8-6.7-2C185.9,95.4,188.7,93.9,188.5,90.6z"/>
<path class="st130" d="M168.4,92.5c0.2-0.9,0.2-2.2,1.3-2.2c1.3,0.1,0.5,1.5,0.9,2.3c-0.4,0.6-0.7,1.3-1.1,1.9
	c-0.4,0.3-0.9,0.4-1.3,0C167.8,93.8,167.9,93.1,168.4,92.5z"/>
<path class="st131" d="M185.6,75.4c-0.4,0.3-0.7,0.7-1.1,1c-1.6-0.6-2.7-1.7-4-4.8C183,73.4,184.3,74.4,185.6,75.4z"/>
<path class="st132" d="M190.3,62.6c-0.3,0.7-0.7,1.4-1,2.1c-1.2-1.5-0.8-3.3-1-5.1c-0.5-1,0-1.2,0.9-1
	C189.6,59.9,190,61.3,190.3,62.6z"/>
<path class="st133" d="M197.2,61.2c0.3,1.6,0.9,3-0.9,4C195.5,63.6,196.3,62.5,197.2,61.2z"/>
<path class="st134" d="M189.4,66.3c-0.3,0.7-0.6,1.4-0.9,2.1c-1.3-0.3-2-1.4-2.7-2.5C187.2,65.1,188.2,66.9,189.4,66.3z"/>
<path class="st135" d="M168.5,94.5c0.3,0,0.7,0,1,0c0,1.3,0,2.6,0.1,3.9c-0.3,0.4-0.7,0.8-1,1.2c-0.3-0.4-0.6-0.7-1-1.1
	C166.7,96.9,167.3,95.7,168.5,94.5z"/>
<path class="st136" d="M185.6,86.4c-0.5,0.1-1,0.1-1.6,0.2c-1-0.6-1.7-1.4-2.1-2.9C184,83.7,184.7,85.2,185.6,86.4z"/>
<path class="st137" d="M189.3,58.6c-0.3,0.3-0.6,0.7-0.9,1c-0.8-0.9-1-2-0.7-3.2C189,56.5,188.9,57.7,189.3,58.6z"/>
<path class="st138" d="M294.6,188.1c6.1,7.3,5.5,15.6,3.4,24c-0.7,2.9-1.8,5.7-2.7,8.5c-1,4.7-3.4,8.7-5.8,12.8
	c-2.8,4.3-2.6,9.9-5.8,14c0,0-0.4,0-0.4,0c-9.1,0-18.2,0-27.4-0.1c-0.9,0-2.1,0.4-2.7-0.7c-0.6-1.1,0.5-1.7,1.1-2.5
	c9.1-12.4,18.2-24.8,27.2-37.2C285.9,200.8,290.2,194.4,294.6,188.1z"/>
<path class="st17" d="M219.7,122.2c-1-5.8-3.3-11.2-5.2-16.7c2.4-3.3,4.7-6.7,7.1-10c0.4-0.5,0.7-0.4,0.9,0.1c5,5,4.3,10.3,1.3,16.1
	C222,115,221,118.7,219.7,122.2z"/>
<path class="st126" d="M227.5,85.4c5.3,4.2,2.4,8.8,0.5,13.4c-2.2-0.8-3.3-2.7-4.7-4.3c-0.2-0.2-0.3-0.5-0.2-0.7
	c0.1-0.2,0.2-0.3,0.3-0.3C224.4,90.7,227.2,88.7,227.5,85.4z"/>
<path class="st139" d="M238.6,73.6c-0.3-0.3-0.6-0.7-0.9-1c1.6-2.4-0.8-3.9-1.3-5.9c-0.5-1.1,0.1-1.3,1-1.1c0.7,0.5,0.9,2.1,2.3,1
	c1.6,0.3,2.8,2.4,4.8,1c1.1,1.3,1.1,1.4-0.1,1.8C242,70.2,239.4,70.6,238.6,73.6z"/>
<path class="st140" d="M233.6,77.4c3,3.8-0.8,6.3-1.4,9.7c-1.9-0.9-3-2-3.7-3.6C232.1,83,232.8,80.2,233.6,77.4z"/>
<path class="st141" d="M244.4,67.6c-2.1,1.9-3.5,0.5-4.8-1c0.3-1,0.7-2,1-3c0.9-0.2,1.4-0.1,0.9,1c0.1,1-0.6,2.3,0.9,2.9
	C243.1,67.5,243.8,67.6,244.4,67.6z"/>
<path class="st142" d="M228.4,83.6c-0.3,0.3-0.6,0.6-0.9,1c-1.1-0.9-1.3-2.1-1.3-3.6C227.9,81.1,227.9,82.6,228.4,83.6z"/>
<path class="st143" d="M225.3,74.5c0.1,1.2,0.3,2.3,0.5,4C224,77.1,224.5,75.8,225.3,74.5z"/>
<path class="st144" d="M223.4,93.6c0,0.3-0.1,0.6-0.1,0.9c-0.3,0.3-0.6,0.7-0.9,1c-0.3-0.1-0.6-0.1-0.9-0.1
	c-0.3-1.1-0.6-2.2-0.9-3.3C222.2,91.8,222.4,93.4,223.4,93.6z"/>
<path class="st145" d="M235.3,63.6c-0.9-0.9-1-1.9-0.5-3.6c0.6,1.1,1.1,1.9,1.5,2.6C236,62.9,235.9,63.6,235.3,63.6z"/>
<path class="st146" d="M235.3,63.6c0.4-0.3,0.7-0.6,1.1-1c0.3,1,0.7,2,1,2.9c-0.3,0.4-0.7,0.7-1,1.1
	C235.4,65.8,235.4,64.7,235.3,63.6z"/>
<path class="st147" d="M241.6,64.6c-0.3-0.3-0.6-0.7-0.9-1c0.4-0.9,0.7-1.7,1.2-2.8C243,62.5,242.5,63.6,241.6,64.6z"/>
<path class="st148" d="M171.5,370.4c0,0.3,0,0.7,0,1c-14,0-28,0-42,0c0-0.4,0-0.7,0-1.1c1.6-1.5,3.6-1.5,5.6-1.5
	c10.3-0.1,20.5-0.1,30.8,0C167.9,368.9,169.9,368.8,171.5,370.4z"/>
<path class="st149" d="M172.5,371.5c0-0.4,0-0.7,0-1.1c1.6-1.6,3.6-1.6,5.6-1.6c10.3-0.1,20.5-0.1,30.8,0c2,0,4,0.1,5.6,1.6
	c0,0.4,0,0.7,0,1.1C200.5,371.5,186.5,371.5,172.5,371.5z"/>
<path class="st150" d="M257.5,370.5c0,0.3,0,0.7,0,1c-14,0-28,0-42,0c0-0.4,0-0.7,0-1.1c1.6-1.5,3.6-1.5,5.6-1.5
	c10.2-0.1,20.5-0.1,30.7,0C253.8,368.9,255.8,369,257.5,370.5L257.5,370.5z"/>
<path class="st151" d="M258.5,371.5c0-0.3,0-0.7,0-1l0,0c1.3-1.2,2.9-1.5,4.6-1.5c11.1-0.1,22.3-0.2,33.4,0c1.2,0,2.3,0.3,3.4,0.8
	c0.7,0.4,0.8,0.9,0.6,1.6c0,0,0,0,0,0C286.5,371.5,272.5,371.5,258.5,371.5z"/>
<path class="st152" d="M238.4,98.4c-1.3-1.5-3-0.7-4.5-0.9c-2.1-0.2-3.1-0.9-1.5-3c3.2,4.6,7,1,10.5,0.8
	C241.5,97.5,241.5,97.5,238.4,98.4z"/>
<path class="st153" d="M244.5,95c0.4-1.8,1.2-2.5,2.6-3C247.1,93.7,246.3,94.4,244.5,95z"/>
<path class="st154" d="M244.5,85.3c0-0.3,0-0.7,0-1c0.7-0.6,1.4-1.2,2.1-1.7C246.5,84.2,245.7,84.9,244.5,85.3z"/>
<path class="st155" d="M300.5,371.4c0-0.3,0-0.7,0-1c-0.9-1-1.4-2.3-1.4-3.6c0-12.6-0.8-25.1,0.4-37.7c0.3-0.6,0.6-1.2,1-1.7l0,0
	c0.3,0,0.7,0,1,0c0.2,0.2,0.4,0.5,0.6,0.7c1.1,2.2,0.9,4.5,0.9,6.8c0,9.5,0.1,18.9,0,28.4c-0.1,4.1,1.5,5.6,5.6,5.5
	c9.1-0.2,18.3-0.1,27.4,0c2.3,0,4.7-0.2,6.9,0.5c0.6,0.3,1.1,0.6,1.6,1l0,0c0,0.3,0,0.7,0,1c-0.3,0-0.7,0-1,0c-14,0-28,0-41.9,0
	C301.2,371.5,300.8,371.4,300.5,371.4z"/>
<path class="st156" d="M344.5,370.4c-0.3,0-0.7,0-1,0c-1.2-1.3-1.5-2.9-1.5-4.6c-0.1-11.3-0.1-22.5,0-33.8c0-1.3,0.2-2.6,0.9-3.8
	c0.2-0.2,0.4-0.5,0.7-0.7c0.3,0,0.7,0,1,0c0,0.3,0,0.7,0,1C344.5,342.5,344.5,356.4,344.5,370.4z"/>
<path class="st24" d="M42.5,328.5c0.3-0.3,0.7-0.6,1-1c1.6-1.5,3.6-1.6,5.6-1.6c10.3-0.1,20.5-0.1,30.8,0c2,0,4,0.1,5.6,1.6l0,0
	c1.5,1.4,1.4,3.3,1.4,5.1c0,10.9,0,21.8,0,32.8c0,1.8,0,3.7-1.4,5.1l0,0c-14.3,0-28.6,0-42.9,0C42.6,356.4,42.5,342.5,42.5,328.5z"
	/>
<path class="st157" d="M230.3,152.6c-1.6-0.3-4-0.1-3.6-2.3c0.4-2.1,2.2-3.2,4.6-2.1c0.9,0.4,1.9,0.4,2.9,0.6
	C233.5,150.5,232.8,152.5,230.3,152.6z"/>
<path class="st158" d="M234.4,146.6c-2.1-0.4-3.3-1-0.9-2.8c1.5-1.1,2.8-2.9,5.1-1.4C238.2,144.8,236.8,146.2,234.4,146.6z"/>
<path class="st159" d="M238.4,138.4c1.1-1.3,2.5-1.8,4.1-2.3c-0.7,1.4-1.4,2.9-2.1,4.3C239.8,139.8,239.1,139.1,238.4,138.4z"/>
<path class="st160" d="M221.3,151.6c-1.8-2.3,0-4.2,0.4-6.7c1.1,1.4,0.7,2.5,0.7,3.6C221.2,149.3,221.6,150.6,221.3,151.6z"/>
<path class="st161" d="M228.7,140.5c-0.1-1.6,0.2-3.2,1.6-4.6c0,1.7,0,3.1,0,4.6C229.8,140.5,229.2,140.5,228.7,140.5z"/>
<path class="st162" d="M351.5,221c-1-0.2-2.1-0.3-3.1-0.5c1.8-3.2,3-6.8,7.1-8c1,2.8,1.2,5.7,1,8.7C354.8,221.1,353.1,221,351.5,221
	z"/>
<path class="st163" d="M342.3,234.5c0.4-0.5,0.8-1.1,1.2-1.6c1.7,0.2,2.2,1.2,1.8,2.7c-0.2,0.7-0.7,1.6-1.7,1.3
	C342.4,236.6,342.5,235.4,342.3,234.5z"/>
<path class="st164" d="M350.8,239.6c0.9,0.2,1.4,0.9,1.4,1.8c0,1-0.4,2-1.7,1.9c-1-0.1-1.1-1.1-1.1-1.9
	C349.4,240.4,349.8,239.7,350.8,239.6z"/>
<path class="st165" d="M335.5,243.4c0.2-1.7-1.4-5.1,2.8-2.9C338.1,242.3,337.6,243.7,335.5,243.4z"/>
<path class="st166" d="M368.5,231.2c0.6,0.9,1.5,1.9,0.6,2.9c-1.1,1.2-1.9-0.1-2.8-0.7C366.3,232,366.3,230.6,368.5,231.2z"/>
<path class="st167" d="M356.6,232.5c1.1,0.3,1.5,1.2,1.4,2.2c-0.1,0.8-0.5,1.6-1.5,1.4c-0.9-0.2-1.1-1.1-1.1-1.9
	C355.3,233.3,355.5,232.6,356.6,232.5z"/>
<path class="st168" d="M363.4,227.9c-0.4,0.3-0.9,1.1-1.3,1.1c-1.4-0.1-1.7-1.2-1.6-2.4c0-0.8,0.6-1.2,1.3-1.1
	C362.8,225.8,363.1,226.7,363.4,227.9z"/>
<path class="st169" d="M351.6,227.9c-0.1,0.8-0.2,1.7-1.3,1.6c-0.8-0.1-1-0.8-1-1.4c0-0.8-0.1-1.8,1-1.9
	C351.3,226.1,351.5,227,351.6,227.9z"/>
<path class="st37" d="M320.6,189.5c0-3.8-0.4-7.5-0.1-11.2c0.4-4.7-0.2-8.7-4.2-11.6c3.2-4.6,4.3-9.8,5.1-15.2c-0.1-1.4,0.3-2.7,1-4
	c3.7,4.6,6.1,9.2,1.6,14.9c-1.9,2.4-2.8,5.6-1.7,8.9c-1.8,4-0.5,8.3-1,12.5C321.1,185.7,321.7,187.7,320.6,189.5z"/>
<path class="st170" d="M337.4,157.5c-2,1.4-4,2.7-6,4.1c-4.4-5.4-0.1-10.1,1.1-15.1c0.9-0.6,1.4-2.2,2.9-1
	C337.1,149.3,338,153.3,337.4,157.5z"/>
<path class="st171" d="M320.4,209.4c0.1-1.4,0.1-2.7,0.2-4.1c1.2-1,1.1-3.6,3.1-3.4c1.6,0.1,2,2,2.7,3.3c1.4,2.7,1.1,4.4-2.6,4.1
	C322.7,209.2,321.6,209.3,320.4,209.4z"/>
<path class="st10" d="M171.5,370.4c-14,0-28,0-41.9,0c0-14.3,0-28.6,0-42.9c1.3-1.2,2.9-1.6,4.6-1.6c11.2-0.1,22.5-0.2,33.7,0
	c1,0,2,0.2,2.9,0.6c0.6,0.3,1.1,0.7,1.4,1.3c1.4,5.1,0.6,10.3,0.7,15.4c0.1,7,0.1,14,0,21C172.9,366.4,173.1,368.7,171.5,370.4
	L171.5,370.4z"/>
<path class="st14" d="M128.5,328.5c0,12.4-0.1,24.9,0.1,37.3c0.1,3.7-1.1,4.8-4.8,4.8c-12.4-0.2-24.9-0.1-37.3-0.1
	c-1.1-7.9-0.4-15.8-0.4-23.8c-0.1-6.1-0.5-12.2,0.3-18.3c1.5-1.3,3.4-1.3,5.2-1.3c10.6,0,21.2,0,31.8,0
	C125.2,327.1,127,327.1,128.5,328.5z"/>
<path class="st8" d="M86.5,327.4c0-8.6,0.1-17.2-0.1-25.8c-0.1-3.2,1-4.3,4.3-4.3c3.9,0,7.9,1,11.7-0.6c8.7,0,17.3,0,26,0
	c0,10.3,0.1,20.5,0.1,30.8c-6.2,1.2-12.5,0.4-18.8,0.5c-7.4,0.1-14.9,0.1-22.4,0C87.1,327.7,86.8,327.6,86.5,327.4z"/>
<path class="st9" d="M171.4,327.5c-14,0-27.9,0-41.9,0c0-8.6,0.1-17.2-0.1-25.8c-0.1-3.2,1-4.3,4.3-4.3c12.6,0.2,25.2,0.1,37.8,0.1
	c0.8,0.7,1.2,1.6,1.2,2.6c0.3,8.3,0.3,16.5,0,24.8C172.7,325.9,172.3,326.8,171.4,327.5z"/>
<path class="st172" d="M86.5,328.5c0,14,0,28,0,42c-0.3,0-0.7,0-1,0c0-14.3,0-28.6,0-43c0.4,0,0.7,0,1.1,0l0,0
	c0.3,0.2,0.5,0.5,0.3,0.7C86.7,328.3,86.6,328.5,86.5,328.5z"/>
<path class="st44" d="M86.5,328.5c0-0.3,0-0.7,0-1c14,0,28,0,42,0c0,0.3,0,0.7,0,1C114.5,328.5,100.5,328.5,86.5,328.5z"/>
<path class="st51" d="M171.4,327.5c0-10,0-20,0-30c0-0.3,0-0.6,0-0.9c0.4,0,0.8,0.1,1.1,0.1c1.1,1.2,1.3,2.6,1.3,4.1
	c0,8.2,0.4,16.4-0.2,24.7c-0.1,0.6-0.4,1.2-0.7,1.7C172.6,327.7,172.1,327.8,171.4,327.5L171.4,327.5z"/>
<path class="st173" d="M365.1,243.1c-1.3,0.1-1.6-0.7-1.7-1.5c-0.1-0.8-0.2-1.8,0.8-2c1.3-0.4,1.7,0.7,1.9,1.6
	C366.2,242.1,365.7,242.8,365.1,243.1z"/>
<path class="st174" d="M313.5,115.7c1.6,3,3.2,5.9,4.8,8.9c1,4.7-2.9,7.8-3.8,11.8c-1.3,2.1-2.4,1-3.2-0.3c-1.2-1.9-2.3-3.9-3.9-5.5
	c-1-1.8-1.2-3.5,0.3-5.1C309,121.9,310,118.1,313.5,115.7z"/>
<path class="st175" d="M308.6,130.6c2.2,0.8,2.4,3.1,3.3,4.7c0.6,1.1,1,2.2,2.5,1.1c0.1,1.7-2,3.8,1,4.9c-0.6,4.5-4.2,7.2-6.2,10.9
	c-1,0.7-1.7,2.1-3.2,0.9c-1.3-3.1-2-6.4-2.7-9.7C303.4,138.6,304.7,134.1,308.6,130.6z"/>
<path class="st176" d="M308.5,151.5c2.3-3.4,4.6-6.7,6.9-10.1c1-1,1.7-0.8,2.1,0.5c1.1,3.8,2.3,7.5,1.1,11.5c-1,3.9-3.9,5.9-7.4,7.3
	C308.7,158,307.5,155.1,308.5,151.5z"/>
<path class="st177" d="M311.5,160.4c1.8-2.9,4.9-4.5,7.1-7.1c1-0.6,1.9-1.3,2.9-1.9c1.7,5.1-0.4,11.4-5.1,15.2
	c-2.4,0.7-1.9,2.7-1.9,4.4c0,2.8-0.1,5.6-0.1,8.3c-4-2.7-1.5-6.8-2.2-10.2C312.4,166.2,309.8,163.5,311.5,160.4z"/>
<path class="st178" d="M277.6,134.4c0.6-1.3,1.2-2.6,1.8-3.9c0.8-2.1,0.6-4.7,3-6c1.1,1.2,2.3,2.3,3.1,3.7c2,3.3,1.9-0.5,2.8-0.7
	c0,2.3,0,4.7,0,8.1c2.7-3.1,2.9-7.3,7.1-7.1c0,0.3,0,0.7,0,1c0.3,2.3,0.5,4.6-0.1,6.9c-1.3,4.8,0,9.5,0.9,14.1
	c-0.8,2.7,0.8,5.2,0.6,7.9c-1,1.8-1.9,3.6-4.5,3.1c-0.9-1.4-1.9-2.8-2.8-4.2c-0.4-2.5-0.3-4.9,0.6-7.3c0.5-1.2,0.8-2.6,0.5-3.9
	c-0.5-2.1-0.6-4.9-2.8-5.4c-2.1-0.5-2,2.5-3,3.9c-0.6,0.9-0.8,2.3-2.4,1.9C282.9,141.6,279.5,138.3,277.6,134.4z"/>
<path class="st179" d="M282.5,146.5c1.1-2.2,2.2-4.4,3.3-6.6c1.4-2.9,2.4-2.3,4,0c4.1,5.9,1.3,11.6-0.1,17.4
	c-0.4-0.2-0.7-0.4-1.1-0.6C284.8,155,282.3,150.8,282.5,146.5L282.5,146.5z"/>
<path class="st26" d="M282.5,146.5c1.7,3.6,3.1,7.4,6.1,10.2c-1.4,2.3-2.8,4.6-4.2,6.9c-2.3-1.9-4.6-3.8-6.9-5.8
	c0.9-3.3,1.9-6.6,2.7-9.9C280.5,146.5,280.9,145.7,282.5,146.5z"/>
<path class="st180" d="M292.4,161.5c1.3-1,2.7-2,4-2.9c1.9,1.9,4.2,3.6,3,6.8c-1,3.7-6.4,5.2-5.2,10c-0.6-0.6-1.2-1.3-1.7-1.9
	C294.8,169.5,293,165.5,292.4,161.5z"/>
<path class="st12" d="M257.4,370.4c-14,0-28,0-41.9,0c0-14.3,0-28.6,0-42.9c14,0,27.9,0,41.9,0C257.4,341.8,257.4,356.1,257.4,370.4
	z"/>
<path class="st181" d="M214.5,370.4c-14,0-28,0-42,0c0,0,0,0,0,0c-1.1-7.2-0.4-14.5-0.4-21.8c0-6.8-0.5-13.6,0.3-20.3
	c1.5-1.2,3.4-1.3,5.2-1.3c10.6,0,21.2,0,31.8,0c1.8,0,3.7,0,5.1,1.4C214.5,342.5,214.5,356.4,214.5,370.4z"/>
<path class="st182" d="M172.5,327.4c0-10.3,0.1-20.5,0.1-30.8c13.9,0,27.8,0,41.7,0c0,10.3,0.1,20.5,0.1,30.8
	c-5.6,1.2-11.2,0.5-16.7,0.5C189.3,327.8,180.9,328.6,172.5,327.4z"/>
<path class="st183" d="M172.5,327.4c14,0,28,0,41.9,0c0,0.3,0,0.7,0,1c-14,0-28,0-42,0c-0.3-0.2-0.4-0.4-0.3-0.7
	C172.3,327.6,172.4,327.5,172.5,327.4L172.5,327.4z"/>
<path class="st184" d="M308.6,130.6c-1.2,4.4-4.5,8-4.1,12.9c-2.6,0.5-1.4-4.4-4.5-3.2c-1.4-2.8-3.7-5.3-2.5-8.8
	c1.3-2.6,2.6-5.2,4-7.8c0.8-1.5,1.5-3.6,4-2.2c0.4,1.5,0.5,3.1,2,4C307.7,127.2,306.8,129.2,308.6,130.6z"/>
<path class="st28" d="M297.4,131.5c1.1,3,2.1,6,3.2,9c1.1,4.2-0.7,8-1.7,11.9c-1.5,1.1-2.6,0.6-3.4-0.9c-3.1-7.3-2.3-14.7,0-22
	C296.1,130.1,296.8,130.8,297.4,131.5z"/>
<path class="st185" d="M343.5,221.2c-1.9,0.5-3.9,1-5.8,1.5c-0.1-0.4-0.1-0.8-0.2-1.3c2.7-0.8,2.8-4.3,5.4-5.4
	C344,217.8,343.2,219.6,343.5,221.2z"/>
<path class="st24" d="M13.6,297.6c8.3,0,16.7,0,25-0.2c3.1-0.1,4,1.1,4,4.1c-0.1,8.7,0,17.3,0,26c-8.2,0-16.3-0.1-24.5,0.1
	c-3.4,0.1-4.7-0.9-4.6-4.5C13.7,314.6,13.6,306.1,13.6,297.6z"/>
<path class="st186" d="M172.4,327.5c0,0.3,0,0.7,0.1,1c0,14,0,28,0,42c-0.3,0-0.7,0-1,0c0-14.3,0-28.6,0-43
	C171.8,327.5,172.1,327.5,172.4,327.5z"/>
<path class="st187" d="M171.6,216.4c-0.7,1-1.4,2-2,3c-2.4,2.3-5.2,1.5-8,1.1c-3.5-1.9-4.3-6.7-8.6-7.7c-1.4-0.8-3.5-0.8-3.5-3.2
	c1.5-2.2,3.4-3.9,6.2-4.3c2.5,0,5,0.1,7.4,0.1C170.8,205.4,173.5,208.9,171.6,216.4z"/>
<path class="st188" d="M155.5,116.5c-0.3,0-0.7,0-1,0c-0.6-1-1.4-2-2.2-2.9c-0.2-0.4-0.1-0.8,0.2-1c2-1.1,2.7-3.4,4-5.1
	c2.1,0.3,4.6,0.1,5.7,2.2c1,2.1,2.9,4.7,1.8,6.9c-1,1.9-3.6-0.3-5.5-0.1C157.5,116.6,156.5,116.5,155.5,116.5z"/>
<path class="st189" d="M150.5,103.3c-2.1-1.2-3.2-2.2-4.1-4.7C148.5,100,149.9,100.8,150.5,103.3z"/>
<path class="st190" d="M158.6,81.5c-0.3,0-0.7,0-1,0.1c0.4-1.3,0.8-2.7,1.3-4.2C159.8,78.9,159.8,80.2,158.6,81.5z"/>
<path class="st191" d="M150.6,93.4c-0.3,0.3-0.7,0.7-1,1c-0.9-0.3-2.4-1-1.8-1.8C148.7,91.4,149.7,92.7,150.6,93.4z"/>
<path class="st192" d="M152.5,113.5c1.3,0.6,2.1,1.5,2,3c-1-0.7-2-1.4-3-2c0-0.3-0.1-0.7-0.1-1C151.8,113.1,152.1,113.1,152.5,113.5
	z"/>
<path class="st193" d="M152.5,113.5c-0.4,0-0.7,0-1.1,0c-0.9-0.4-2.1-1.3-1.6-1.9c1.1-1.2,1.6,1,2.6,1
	C152.5,112.9,152.5,113.2,152.5,113.5z"/>
<path class="st194" d="M147.5,145.6c-2.1-2-2.2-4.5-1.9-7.2c1-0.7,1.9-1.4,2.9-2.1c0,0,0.2,0.4,0.2,0.4
	C148.7,139.8,150.6,143,147.5,145.6z"/>
<path class="st195" d="M141.5,144.6c2.3-0.4,3.8,0.4,4,2.9c-2.4,1-4.7,0.9-7-0.2C139.3,146.2,141.1,146.1,141.5,144.6z"/>
<path class="st196" d="M144.5,140.5c-0.7,1.1-1.9,1.5-3.1,2c0.2-1.9-1.8-2.7-2.3-4.7c2.2,0,2.8,2.2,4.3,2.7
	C143.8,140,144.1,140,144.5,140.5z"/>
<path class="st197" d="M138.5,147.3c2.3,0.1,4.7,0.1,7,0.2c-0.6,0.6-1.3,1.2-1.9,1.9c-1.7-0.3-3.4-0.6-5-0.9
	C138.5,148.1,138.5,147.7,138.5,147.3z"/>
<path class="st198" d="M144.5,140.5c-0.4,0-0.7,0-1.1,0c0.1-1.7,0.2-3.4,0.3-5.4c1.3,1,1.8,2.1,1.7,3.5
	C144.6,138.9,144.6,139.7,144.5,140.5z"/>
<path class="st199" d="M52.5,202.6c-0.8-0.6-0.9-1.4-0.7-2.3c1.7-2.5,6.2-1.9,6.6-5.8c-0.6-1.2,0.4-1.5,1.1-2
	c0.7,0.2,1.4,0.5,2.1,0.7c0.6-1.1,4.2-0.8,1.6-3.4c-0.7-1.3-2-0.7-3-1c-1-0.2-1.8-0.7-1.8-1.9c0.1-1.3,1.7-0.6,2.1-1.5
	c0-0.6-1.3-2.3,0.7-1.4c1.3,0.6,2.3,2.2,3.4,3.3c3.2-0.2,5.9,2.1,9.1,1.6c1.1,0.5,2.1,1.2,2.2,2.6c-1.8,2.5-3.5,5-3.8,8.2
	c-0.6,0.9-1.4,1.4-2.5,1.1c-1.3-0.7-1-2.4-2.2-3.6c-1.7,1.4-1.2,4.2-3.4,5.2c-3.6-4.6-4.6-4.4-7.1,1.7
	C54.8,205.7,54.3,202.4,52.5,202.6z"/>
<path class="st200" d="M73.4,189.5c-3.6,1.9-6-0.8-8.8-2.1c1-1.3,2-2.6,3-3.9c0.6,0.3,1.2,0.7,1.8,1
	C71.7,185.4,73.7,186.5,73.4,189.5z"/>
<path class="st201" d="M60.6,185.5c-2.9,4.3,2.5,2.1,3,3.8c-0.3,0.4-0.6,0.5-1,0.2c-2.3,0-4.7,0-7,0c-1,0.4-1.2-0.1-0.9-1
	c0.8-0.2,2-0.3,2.2-0.7c0.5-1.6-1-1.3-1.8-1.3c-1.8-0.1-3.5,0-5.3-1C53.3,185.5,56.9,185.5,60.6,185.5z"/>
<path class="st202" d="M62.5,189.5c0.3-0.1,0.7-0.1,1-0.2c1.1,0.7,2.2,1.4,3.6,2.2c-1.8,1.6-3.6,1.9-5.5,1.7
	C61.3,191.9,61.9,190.7,62.5,189.5z"/>
<path class="st203" d="M59.5,192.5c-0.4,0.7-0.7,1.3-1.1,2c-1.6,0-3.2,0-4.8,0c0-0.3-0.1-0.6-0.1-0.8
	C55.5,193.3,57.5,192.9,59.5,192.5z"/>
<path class="st204" d="M54.6,188.5c0.3,0.3,0.6,0.7,0.9,1c-0.9,1-1.9,1.4-3.2,0.5C53.1,189.5,53.8,189,54.6,188.5z"/>
<path class="st72" d="M168.5,94.5c-0.3,1.3-0.6,2.7-0.9,4c-0.3,0.6-0.6,1.2-1,1.7c-0.8,1.2-1.4,3.1-3.1,2.8c-1.6-0.3-1.4-2.4-2-3.7
	c3.2-1.4,3.8-5.4,6.9-7C168.5,93.2,168.5,93.8,168.5,94.5z"/>
<path class="st205" d="M175.3,104.8c0.8,3.4-0.5,6.3-2.7,8.8c-0.4-0.4-0.7-0.7-1.1-1.1C173.3,110.2,174.2,107.4,175.3,104.8z"/>
<path class="st206" d="M91.5,172.5c-3.5,4.3,0.7,4.2,3,5.1c-0.1,1.7-1.5,1.7-2.6,1.9c-0.6,0-1.3,0-1.9-0.1c-2.7-0.3-3.7,1.7-4.7,3.5
	c-1.5,2.7,1.8,2.9,2.6,4.4c0.3,0.7,0.3,1.4-0.1,2c-2.8,1.7-5.8-1.2-8.6,0.4c-1.7-0.5-3.3-1.2-2.7-3.5c0.6-2.9-0.3-5.5-2.2-7.8
	c-0.2-1.1,0.2-1.4,1.2-1.2c1.6-0.9,0.7-2.5,1.1-3.7c2.1-0.9,0.7,1.8,1.9,1.9c2.5,2.2-1.8,4.9,0.6,7.1c5.9-2.5,4.9-9.1,7.8-14
	c0.8,1.8-0.6,6.6,3.6,2.9C91.4,171.4,91.9,171.5,91.5,172.5z"/>
<path class="st207" d="M76.5,186.4c0.7,1.2,1.6,2.3,2.9,2.9c1.5,0.2,2.8,0.8,3.4,2.3c0.1,1.7-0.9,2.7-2.3,3.5
	c-2.7,0.5-4-1.1-4.9-3.3c-0.7-0.7-1.5-1.4-2.2-2.1c-1.3-1.7-2.6-3.3-3.9-5c0.9-1.4,1.2-3.2,2.9-3.9
	C73.7,182.5,75.1,184.4,76.5,186.4z"/>
<path class="st208" d="M91.5,172.5c-0.3-0.3-0.6-0.7-1-1c0.8-1.7,2.4-2.5,4.1-3.1c-0.2,2.7,1.9,2.8,3.7,3.2c0.1,1.9-1.1,1.1-2,1
	C94.7,172.8,93.2,171.2,91.5,172.5z"/>
<path class="st209" d="M78.5,175.5c-1.8,0.6-0.6-1.9-1.9-1.9c0.4-1.7,0.7-3.4,1.1-5.1c0.3,0,0.5,0,0.8,0
	C78.5,170.9,78.5,173.2,78.5,175.5z"/>
<path class="st210" d="M75.6,177.4c-0.4,0.4-0.8,0.8-1.2,1.2c-0.9-0.9-1.4-2.4-0.5-3.1C74.6,175,75,176.7,75.6,177.4z"/>
<path class="st84" d="M115.5,193.5c3.7,3.2,4.7,7.3,4,12c-0.4,2.9-2.5,4.2-4.9,5.3c-3.8,1.6-7.1,0.7-10.2-1.8
	c-0.2-0.3-0.5-0.6-0.4-0.9c1.4-6.4-1.8-10.4-6.8-13.5c-0.2-0.5-0.3-1-0.2-1.6c2.9-4.8,4.5-5.4,9.5-3.6
	C109.5,190.6,112.1,192.8,115.5,193.5z"/>
<path class="st211" d="M106.4,189.4c-3.7-0.2-7.1,0.3-9,4c-1.2,1.2-2.2,1-3.2-0.2c2-6.7,6.2-11.9,11.3-16.6c1.3,1,2.7,2,4,3
	C105.9,182,106.4,185.8,106.4,189.4z"/>
<path class="st212" d="M105.5,176.5c-3.7,5.3-7.3,10.6-11,16c-2.8,1.3-4.9-0.5-7.1-1.8c-0.3-0.5-0.3-1,0.1-1.4
	c0-0.6-0.1-1.3-0.1-1.9c-1.7-4.4,1.5-6.4,4.1-8.7c1.1-0.2,2.2,0,3-1C98.1,177.2,101.5,173.7,105.5,176.5z"/>
<path class="st213" d="M96.3,172.7c0.7-0.3,1.3-0.7,2-1c1.1-0.1,2.2-0.5,3.8,0.5C99.9,172.5,98.4,174.3,96.3,172.7z"/>
<path class="st214" d="M147.5,145.6c2.4-2.7,0.5-6,1.1-8.9c1.4,1,1,2.7,1.7,3.9c-1.2,1.1-0.6,2.5-0.8,3.7
	C149.3,145.6,149.2,146.9,147.5,145.6z"/>
<path class="st215" d="M155.5,152.4c0-1.6,0-3.2,0-5c1.5,0.2,1.6,1.2,1.9,2.2C155.7,149.8,157.8,152.6,155.5,152.4z"/>
<path class="st216" d="M114.6,209.7c2-0.9,3.4-2.6,4.9-4.2c1.4,1.3,3.2,1.6,5,1.9c3.8,1.8,7.8,2.3,12,2.1c3,2.4,2.5,5.6,1.9,8.8
	c-2.1,5.1-6.1,6-11,5.1c-3.7-1.7-4.2-6.5-8-8.2C117.8,213.3,114.6,212.8,114.6,209.7z"/>
<path class="st217" d="M137.5,218.4c0.3-3,0.1-6.1-1-8.9c1.4-0.7,2.7-1.4,4.1-2.1c3,0.7,6,1.4,9,2.1c1,1.2,2.5,1.7,4,2
	c-1,5.6-5.1,9-9,12.4C141.6,222.8,138.4,222,137.5,218.4z"/>
<path class="st218" d="M56.4,204.2c0.2-4.9,0.2-4.9,6.3-7.1c1.6,1.1,0.1,3.1,1.3,4.7c0.3-0.6,0.5-1.1,0.7-1.6
	c0.9-1.9,0.1-5.6,3.3-5.2c2.7,0.3,0.9,3.7,1.8,5.5c-0.1,4.4-3.5,7.7-4,11.9c-4.6,0.7-7.3-2.4-10.2-5.1c0-0.3-0.1-0.6-0.1-0.9
	C55,205.3,55.8,204.8,56.4,204.2z"/>
<path class="st219" d="M55.6,207.4c3.1,1.7,6.3,3.4,9.4,5.2c2.9,0.4,4.4,2.2,4.9,5c-0.3,0.8-0.6,1.4-1.6,1
	c-3.9-3.7-8.3-6.5-12.8-9.4C55.6,208.6,55.6,208,55.6,207.4z"/>
<path class="st220" d="M56.4,204.2c-0.3,0.7-0.6,1.5-0.9,2.2c-1.7-0.7-3-1.8-3-3.9C55.5,199.3,55,204.1,56.4,204.2z"/>
<path class="st221" d="M137.6,248.3c0.6-0.6,1.2-1.2,1.7-1.8c3.3-0.6,6.6-0.1,9.9-0.2c1.6-0.1,3.4,0.5,4-1.8c2.2-1.5,4.4-2.8,7-3.4
	c3.6,0.5,5.8,3.5,9.1,4.7c3.5,1.1,7.3-0.3,10.8,1.2c0.5,0.3,0.6,0.8,0.4,1.4C166.2,248.3,151.9,248.3,137.6,248.3z"/>
<path class="st222" d="M218.5,257.7c-0.4,2.8-2,4.7-4.9,4.7c-2.8,0-4.9-1.9-4.8-4.7c0.1-2.8,1.8-5.2,5.1-5
	C216.8,252.8,218.3,254.8,218.5,257.7z"/>
<path class="st104" d="M240.5,252.5c2.7,0.6,4.7,2,4.8,4.9c0.1,2.9-1.7,4.8-4.5,4.9c-3.1,0.1-5.1-1.9-5.1-4.9
	C235.7,254.6,237.8,253.1,240.5,252.5z"/>
<path class="st223" d="M191.5,257.4c-0.2,2.9-1.7,4.8-4.6,5c-3.2,0.2-5-2.1-5-5c0-2.6,1.8-4.8,4.8-4.7
	C189.6,252.7,191.1,254.5,191.5,257.4z"/>
<path class="st104" d="M205.1,272.6c-0.5,2.3-1.6,4.6-4.6,4.8c-2.9,0.2-4.8-1.2-5-4.2c-0.2-3.2,1.6-5.3,4.6-5.4
	C202.8,267.7,204.6,269.5,205.1,272.6z"/>
<path class="st104" d="M160,252.6c2.8,0.5,4.4,2,4.5,5c0.1,3.2-1.9,4.6-4.6,4.8c-3.2,0.2-5-2.1-4.9-5C155,254.5,157.1,253,160,252.6
	z"/>
<path class="st104" d="M258.6,272.6c-0.1,2.9-1.4,4.8-4.4,4.9c-3.2,0.1-4.8-1.8-4.8-5c0-3.1,2-4.7,4.7-4.6
	C256.7,267.8,258.7,269.4,258.6,272.6z"/>
<path class="st222" d="M240.7,292.5c-3.1,0.2-4.8-1.7-5-4.4c-0.1-2.7,1.3-4.7,4.4-4.8c2.9-0.1,5,1.1,5.2,4
	C245.5,290.3,243.9,292.4,240.7,292.5z"/>
<path class="st104" d="M213.5,283.3c2.9,0,4.8,1.4,4.9,4.4c0.1,2.9-1.5,4.7-4.4,4.8c-3.1,0.1-5.2-1.6-5.2-4.6
	C208.8,285.2,210.4,283.2,213.5,283.3z"/>
<path class="st224" d="M178.2,272.6c-0.6,2.7-1.9,4.9-5.2,4.9c-2.7,0-4.3-1.5-4.5-4.3c-0.2-3.3,1.9-5.1,4.7-5.3
	C176,267.7,177.6,269.7,178.2,272.6z"/>
<path class="st104" d="M231.6,272.5c0,2.9-1.3,4.8-4.3,4.9c-2.9,0.1-4.7-1.4-4.8-4.4c-0.1-3.1,1.5-5.3,4.6-5.3
	C229.7,267.8,231.7,269.4,231.6,272.5z"/>
<path class="st104" d="M186.7,283.3c2.9,0.1,4.7,1.5,4.7,4.5c0,2.9-1.6,4.6-4.6,4.7c-3.1,0-5.2-1.7-5.1-4.8
	C181.9,285,183.6,283.1,186.7,283.3z"/>
<path class="st222" d="M146.3,267.7c2.9,0.4,4.8,2.1,4.9,4.8c0.1,2.8-1.8,4.7-4.6,4.8c-3.1,0.2-5-1.7-5-4.8
	C141.6,269.5,143.8,268.4,146.3,267.7z"/>
<path class="st225" d="M159.7,283.3c2.9,0.1,4.7,1.4,4.8,4.4c0.1,3-1.5,4.7-4.5,4.7c-3,0.1-4.7-1.8-4.9-4.5
	C155,285.2,156.4,283.2,159.7,283.3z"/>
<path class="st225" d="M133.7,283.3c2,0.1,3.8,1.5,3.9,4.5c0,3-1.6,4.7-4.5,4.6c-3.3,0-4.7-2-4.6-5.1
	C128.4,284.5,130.1,283.3,133.7,283.3z"/>
<path class="st226" d="M180.5,248.3c0-0.3-0.1-0.5-0.1-0.8c0-1.5,0.6-2.6,2.1-3.1c2.4,0.6,4.6,1.4,5.8,3.8
	C185.7,248.2,183.1,248.3,180.5,248.3z"/>
<path class="st227" d="M55.3,220.4c-0.1,0.9-0.5,1.6-1.4,1.8c-1,0.2-1.4-0.5-1.3-1.5c0.1-0.9,0.6-1.5,1.5-1.6
	C54.8,219.1,55.2,219.7,55.3,220.4z"/>
<path class="st228" d="M51,238.6c-1-0.1-1.7-0.6-1.9-1.4c-0.1-0.9,0.4-1.6,1.4-1.3c0.8,0.2,1.4,0.8,1.5,1.7
	C52.3,238.4,51.5,238.4,51,238.6z"/>
<path class="st229" d="M60.4,237.5c0.1,2-1,2.9-2.9,2.9C57.2,238.2,58.1,237.1,60.4,237.5z"/>
<path class="st227" d="M45.4,247.4c-1.4,0-2-0.8-2.1-2c0.6-0.8,1.2-1.8,2.3-1.1C46.9,245.3,45.3,246.4,45.4,247.4z"/>
<path class="st230" d="M49.4,231.1c-0.8-0.3-0.9-0.9-0.9-1.5c0-0.9,0.3-1.7,1.4-1.4c0.4,0.1,0.6,1.1,0.6,1.7
	C50.4,230.4,50.2,231.1,49.4,231.1z"/>
<path class="st231" d="M31.5,240.4c0-1.4,0.8-2,2.1-2.3c0.6,0.4,1.7,0.8,1.3,1.7C34.1,241.4,32.7,240.4,31.5,240.4z"/>
<path class="st232" d="M46.5,221.7c-1-0.5-2.2-1.2-1.5-2.5c0.7-1.2,1.6,0,2.4,0.4C47.1,220.3,46.8,221,46.5,221.7z"/>
<path class="st233" d="M65.4,231.5c-0.3,0.4-0.6,0.8-0.9,1.2c-1-0.2-3,0.2-2.5-1.2C62.6,229.4,64.2,230.7,65.4,231.5z"/>
<path class="st234" d="M37.5,246.5c-1,0.3-2,0.6-3,0.9c0-1.4,0.3-2.7,2-2.8C37.7,244.7,37.5,245.7,37.5,246.5z"/>
<path class="st235" d="M60.4,225.7c-0.5,0.9-1,1.6-1.9,1.4c-0.3-0.1-0.7-0.8-0.6-1.1c0.2-0.8,0.8-1.5,1.8-1.2
	C59.9,224.8,60.1,225.4,60.4,225.7z"/>
<path class="st236" d="M58.2,232.8c-0.2,0.9-0.7,1.5-1.6,1.6c-0.8,0.1-1.3-0.5-1.1-1.2c0.2-0.5,0.8-1.1,1.3-1.3
	C57.5,231.7,58.1,232,58.2,232.8z"/>
<path class="st237" d="M43.5,237c1.1,0.1,1.6,0.5,1.4,1.2c-0.2,0.5-0.8,1-1.3,1.2c-0.6,0.2-1.5,0.2-1.3-0.7
	C42.4,238,43.1,237.4,43.5,237z"/>
<path class="st238" d="M38.2,232.5c0.2-0.9,0.3-1.8,1.3-2.2c0.8,0.8,1.6,1.8,0.6,2.8C39.4,233.9,38.7,233.1,38.2,232.5z"/>
<path class="st239" d="M79.3,246.5c-0.7,0.4-1.4,1.1-2-0.1c1.5-8.2-0.6-15.7-4.9-22.7c-0.3-1,0.2-1.4,1-1.6c3.8,1.5,4,5.6,5.9,8.5
	c0.6,1.7,1.3,3.4,1,5.3c-0.7,1.8-0.1,3.7-0.4,5.5C79.7,243,79.5,244.7,79.3,246.5z"/>
<path class="st240" d="M73.5,222.5c-0.4,0.4-0.8,0.7-1.1,1.1c-1.3-1.7-2.7-3.4-4-5.1c0.4-0.4,0.8-0.8,1.2-1.2c1-0.4,1.8,0.2,2.5,0.8
	C73.1,219.4,74.3,220.6,73.5,222.5z"/>
<path class="st241" d="M28,242.3c0.1,1-0.6,1.3-1.2,1.3c-0.6,0-1.4-0.2-1.7-0.6c-0.4-0.6,0.1-1.2,0.9-1.3
	C26.9,241.4,27.6,241.5,28,242.3z"/>
<path class="st242" d="M28.1,234c0.1,0.7-0.2,1.3-1,1.3c-0.7,0-1.2-0.3-1.5-1c-0.2-0.7-0.1-1.4,0.6-1.5
	C27.2,232.5,27.7,233.3,28.1,234z"/>
<path class="st243" d="M36.5,223.5c0,0.6,0,1.5-0.9,1.2c-0.6-0.2-1.3-0.9-1.6-1.5c-0.3-0.6,0.2-1.3,0.9-1.2
	C35.9,222,36.3,222.7,36.5,223.5z"/>
<path class="st244" d="M33.5,231c-0.4,0.6-0.5,1.1-0.8,1.2c-0.7,0.3-1.2-0.2-1.5-0.8c-0.4-0.7,0-1.3,0.7-1.3
	C32.4,230.1,32.9,230.6,33.5,231z"/>
<path class="st245" d="M43.5,226.5c-1.4,0-2.2-0.5-1.7-2c0.1-0.3,0.9-0.7,1.1-0.6C43.8,224.4,43.5,225.5,43.5,226.5L43.5,226.5z"/>
<path class="st187" d="M137.5,218.4c2.4,1.7,4.8,3.3,7.1,5c2.5,1.3,3,3.7,3.1,6.2c-1.3,6.6-3.4,8.6-8.1,7.8c-4.7-4.1-10-6.8-16.1-8
	c0.1-2.7-0.1-5.6,2.9-7.2C130.8,222.9,134.8,222.7,137.5,218.4z"/>
<path class="st216" d="M118.5,246.5c-2.7,1.3-5.4,1.2-8.1,0c-1.8,0.8-2.8-0.3-2.8-1.7c0.2-6.6-4.4-10.9-7.4-16
	c0.9-2.2,2.9-2.6,5-2.9c1.5,0.2,2.8,1.1,4.1,1.8c3,2.7,7.1,2.7,10.5,4.5c4,3,3.7,6.9,2.6,11.1C121.9,245.4,120.8,246.7,118.5,246.5z
	"/>
<path class="st216" d="M139.6,237.5c4.9-0.4,6.4-3.9,7-8c2.5-2.1,5.5-1.3,8.4-1.3c3.8,0.5,6.2,2.7,7.5,6.3c0.4,2.6,0.5,5.2-2,7
	c-2.1,1.5-4.1,3.2-6.9,3.2c-5.1,1.9-9-0.7-13-3.2C139.9,240.2,139.4,238.9,139.6,237.5z"/>
<path class="st246" d="M119.8,232.4c-4.4,0.5-8.1-0.8-11.3-3.9c3.1-5.1,5.8-10.6,11-14c4.3,0.9,5.1,4.8,6.9,7.8
	c-1.5,2.2-0.7,5.3-2.9,7.2C122.3,230.4,121,231.4,119.8,232.4z"/>
<path class="st217" d="M140.5,241.4c4.5,0.4,8.4,3.2,13,3.2c-0.1,1,2.7,2.6,0.2,2.7c-4.8,0.1-9.7,1.4-14.3-0.9
	C139.7,244.7,140.1,243.1,140.5,241.4z"/>
<path class="st247" d="M118.5,246.5c1.3-1,2.6-2.1,3.8-3.1c1,1.3,2,2.7,3.1,4C123.1,247.1,120.6,248.3,118.5,246.5z"/>
<path class="st248" d="M70.5,237.1c-0.1,1.1-0.7,1.4-1.4,1.3c-0.6,0-1.4-0.2-1.4-1c-0.1-1.1,0.7-1.4,1.5-1.2
	C69.7,236.3,70.2,236.8,70.5,237.1z"/>
<path class="st249" d="M64.8,241.5c0.8,0,1.4,0.1,1.6,0.8c0.2,0.8-0.4,1.1-1.1,1.2c-0.7,0.1-1.3-0.1-1.5-0.8
	C63.6,241.8,64.3,241.6,64.8,241.5z"/>
<path class="st14" d="M85.4,327.5c-14,0-27.9,0-41.9,0c0-8.5,0.1-16.9-0.1-25.4c-0.1-3.3,0.7-4.8,4.4-4.7c11.1,0.2,22.3,0.2,33.4,0
	c3.7-0.1,4.4,1.4,4.4,4.7C85.4,310.6,85.5,319,85.4,327.5z"/>
<path class="st66" d="M100.6,228.6c4.1,4.3,8.4,8.4,7.9,15.1c-0.1,1.5,0.3,2.6,1.9,2.9c-5.3,1.4-10.6,0.7-16,0.8
	c-3.1-1.8-2.3-5.1-2.9-7.9c-3.6-1.2-7.9,0.3-10.9-3c-0.7-0.1-0.7-0.7-1-1.2c-0.5-1.6-0.9-3.3-1.4-4.9c4.6-6.6,4.5-14.6,6.9-21.8
	c0.6-0.6,1.4-0.8,2.2-0.7c1.9,0.3,3.6,1,4.8,2.6c1.1,1.9,1.6,4,1.8,6.1C94.5,221.5,95.8,226,100.6,228.6z"/>
<path class="st250" d="M91.5,239.5c2.1,2.2,1.6,5.4,2.9,7.9c-2.4,0-4.7,0-7.6,0C88.6,244.4,90,241.9,91.5,239.5z"/>
<path class="st251" d="M79.6,235.3c0.3,0.4,0.7,0.8,1,1.2c-0.3,1.6,0.4,3.4-0.7,4.9C79.8,239.3,79.7,237.3,79.6,235.3z"/>
<path class="st252" d="M300.5,327.5c0,0.3,0,0.7,0,1c-1.6,1.5-3.6,1.6-5.6,1.6c-10.3,0.1-20.5,0.1-30.8,0c-2,0-4-0.1-5.6-1.6
	c0-0.3,0-0.7,0-1C272.5,327.4,286.5,327.4,300.5,327.5z"/>
<path class="st253" d="M313.5,168.6c0.3,3.6-0.7,7.3,0.8,10.8c0.1,3,0.2,6,0.3,9c0.6,1.5-0.4,2.6-1.3,3.3c-3.3,2.8-2.2,4.5,1.3,5.7
	c0,3.7,0,7.3-0.1,11c-1.4,1.3-2.1,3.3-4,4.1c-0.3,0.1-0.6,0.2-0.9,0.1c-1.5-0.5-3.2-1.4-4.3,0.6c-1.4,2.5,2.1,1.9,2.3,3.5
	c-1.3,3.8-4.3,6.4-6.5,9.6c0.2-11.3,0.5-22.6,0.7-33.9c1-3.1-1.3-7.4,4-8.9c1.5-0.4,0.1-2.9-0.5-4.4c-0.7-1.8-3.3-2.4-2.9-4.9
	c0.1-2.2,0.2-4.5,0.3-6.7C306.2,167.7,309.7,169.2,313.5,168.6z"/>
<path class="st254" d="M309.4,245.7c-1.4-1-4.2,1.2-4.2-1.8c0-2.5,1.8-5.1,4.3-5.3c3-0.2,4.1,3,4.2,5.2
	C313.9,247.2,310.8,244.4,309.4,245.7z"/>
<path class="st255" d="M307.5,216.7c-1.5-0.8-4.1,0.9-4.6-1.5c-0.3-1.7,1.3-3.3,2.7-4.4c2.6-2.1,3.1,1.5,4.8,1.7
	C311,215,311,217.1,307.5,216.7z"/>
<path class="st256" d="M314.5,197.5c-1.9-0.4-4.7,1-5.4-0.8c-0.8-1.9,1.5-3.7,2.8-5.4c0.8-1,1.8-1.9,2.7-2.9
	C318.6,191.5,315.3,194.5,314.5,197.5z"/>
<path class="st257" d="M313.5,168.6c-4,2.9-7.5,1-11-1.1c-0.2-0.3-0.2-0.5-0.1-0.8c-1-3.2,1.1-5.8,1.7-8.7c0.7-1.6,0.8-3.5,2.6-4.4
	c0.6-0.7,1.2-1.4,1.7-2.1c1,3,2.1,6,3.1,8.9C312.2,163.2,312.8,165.9,313.5,168.6z"/>
<path class="st258" d="M283.6,247.5c0.8-5.3,2.4-10.3,5.2-14.9c0.7-0.2,1.2,0.2,1.8,0.7c1.4,1.3,3.6,0.8,4.9,2.2c0,1.3,0,2.7,0,4
	c-1.8,0.8-2.5,2.6-3.3,4.1C290.1,246.9,287.4,248.2,283.6,247.5z"/>
<path class="st259" d="M305.3,158.4c-1,2.8-1.9,5.6-2.9,8.4c-0.9-0.5-1.6-1.6-3-1.3c-0.3-2.6-2.9-4.2-3-6.8
	c-0.3-2.4-3.1-4.4-0.9-7.1c1,0.3,2,0.7,3,1C302.5,152.4,303.4,156,305.3,158.4z"/>
<path class="st260" d="M302.2,174.2c2.9,2.3,5.4,4.8,5.6,8.8c0,0.8,0.5,2.2-0.4,2.1c-6.2-0.8-4.5,4.4-5.8,7.3
	c-0.5-5.4-1-10.8-1.6-16.2C299.8,174.3,300,173.3,302.2,174.2z"/>
<path class="st261" d="M295.4,235.4c-1.9-0.8-4.9,1.6-6-2c1.4-2.9,2-6.6,6.1-7.1C297.7,229.4,296,232.4,295.4,235.4z"/>
<path class="st262" d="M295.6,226.4c-2.8,1.8-4.2,4.6-6.1,7.1c-0.2-0.3-0.5-0.6-0.7-0.9c2.2-4,4.4-7.9,6.5-11.9
	C295.4,222.6,295.5,224.5,295.6,226.4z"/>
<path class="st263" d="M331.4,236.1c-1.1-0.2-1-1.1-1-1.9c0.1-0.9,0.6-1.6,1.5-1.7c0.9-0.1,1.5,0.6,1.4,1.6
	C333.1,235.1,332.6,235.9,331.4,236.1z"/>
<path class="st264" d="M339.9,226.7c0.7,0.1,1.3,0.3,1.3,1.1c0.1,1.3-0.4,2.3-1.7,2.5c-0.9,0.1-1-0.7-1.1-1.3
	C338.4,227.9,338.8,227.1,339.9,226.7z"/>
<path class="st265" d="M258.5,328.5c14,0,28,0,42,0c0,14,0,28,0,42c-14,0-28,0-42,0C258.5,356.4,258.5,342.5,258.5,328.5z"/>
<path class="st11" d="M301.5,327.5c0-10,0-20,0-30c12.6,0,25.2,0.1,37.7-0.1c3.2,0,4.4,0.9,4.3,4.2c-0.2,8.6-0.1,17.2-0.1,25.8l0,0
	c-1.6,1.5-3.6,1.5-5.6,1.6c-10.3,0.1-20.5,0.1-30.8,0C305.1,329,303.1,328.9,301.5,327.5L301.5,327.5z"/>
<path class="st84" d="M161.5,234.5c-1.4-2.2-2.7-4.7-5.7-5.1c0.3-3.9,3.4-6.5,4.9-9.8c3-0.1,6-0.1,8.9-0.2c6.7,2.4,8.5,5.6,7,12.1
	c-0.3,0.7-0.7,1.3-1,2C172,238.7,167.3,239,161.5,234.5z"/>
<path class="st266" d="M161.5,234.5c4.8,1.6,9.7,3.4,14.1-1.1c0.8,0,1.5,0.3,1.9,1c-1.3,5.3-4.4,9.3-9,12c-3.1-1-5.4-3.3-8-5
	C161.1,239.2,161.8,236.9,161.5,234.5z"/>
<path class="st267" d="M168.4,246.5c3-4,6-8,9-12c3.2,1.2,5.1,3.4,5,7c0,1,0,2,0,3c-0.7,1-1.4,2.1-2.1,3.1
	C176.4,247,172.3,248.7,168.4,246.5z"/>
<path class="st268" d="M200.4,88.4c-0.4-0.3-0.7-0.7-1.1-1c1.4-1,2.7-2,4.1-2.9c0.5-0.4,0.9-0.4,1.3,0.1
	C203.6,86.2,202.3,87.6,200.4,88.4z"/>
<path class="st269" d="M201.5,99.5c-0.4-0.4-0.8-0.7-1.1-1.1c1.1-1,2.1-1.9,3.2-2.9c0.9-0.2,1.4,0,1,1
	C203.8,97.8,202.9,98.9,201.5,99.5z"/>
<path class="st270" d="M204.5,96.6c-0.3-0.3-0.7-0.7-1-1c0.6-1.1,1.2-2.2,2.6-2.6C206.6,94.6,205.5,95.5,204.5,96.6z"/>
<path class="st271" d="M204.7,84.5c-0.4,0-0.8-0.1-1.3-0.1c0.7-1,1.3-2.1,2.6-2.5C206.6,83.4,205.5,83.9,204.7,84.5z"/>
<path class="st23" d="M301.5,327.4c14,0,27.9,0,41.9,0c0,14.3,0,28.6,0,42.9c-12.6,0-25.2-0.1-37.8,0.1c-3.3,0-4.3-1.1-4.2-4.3
	C301.6,353.3,301.5,340.4,301.5,327.4z"/>
<path class="st272" d="M305.3,158.4c-3.1-1-4-4.6-6.8-5.9c-0.2-4.2,0.9-8.1,2.1-12c1.1-1.2,2.3-2.4,2.8,0.4c0.2,1,0.1,2,1,2.6
	c0.9,3.3,2.4,6.5,2.3,10.1C306.2,155.2,305.8,156.8,305.3,158.4z"/>
<path class="st273" d="M160.6,219.5c0.4,4.3-2.6,6.9-4.9,9.8c-3,0-6.1,0.1-9.1,0.1c0-2.3-1.2-4.1-2-6c3-4,6-7.9,8.9-11.9
	C157.3,213,159.7,215.6,160.6,219.5z"/>
<path class="st274" d="M71.4,218.7c-0.6-0.4-1.3-0.9-1.9-1.3c-1.5-1.6-3-3.2-4.5-4.8c0-4.6,2.1-8.4,4.8-12c0.8-0.1,1.5-0.4,1.9-1.1
	c2.3-1.6,5.1-1.4,7.6-2.1c1.6,2.5,5.1,3.7,5.5,7.2c-3.5,3.6-6.1,7.9-9.5,11.6C74.2,217.2,73.5,219,71.4,218.7z"/>
<path class="st275" d="M79.3,197.4c-1.8,3.4-4.9,1.8-7.6,1.9c-0.7-3.6,0.1-6.4,3.9-7.7c1.7,0.7,2.5,2.8,4.5,3
	C81.3,195.9,80.4,196.7,79.3,197.4z"/>
<path class="st276" d="M91.5,178.7c-0.8,3.2-4.6,5-4.1,8.7c-1.9-0.6-4.7-0.5-4.5-3.3C83.1,180.8,87.8,178.1,91.5,178.7z"/>
<path class="st277" d="M87.5,189.3c0,0.4,0.1,0.8,0.1,1.1c-1.3,1.7-2.9,2.3-4.9,1.3c-1.2-0.7-2.6-1.2-3.3-2.5
	C82.1,185.5,84.8,189.7,87.5,189.3z"/>
<path class="st278" d="M82.7,191.8c1.6-0.4,3.3-0.9,4.9-1.3c2.6-0.3,4.5,1.8,6.9,2c0.8,1.1,1.8,1,2.9,0.8c0,0.4,0.1,0.7,0.1,1.1
	c-1.8,5.8-5.7,10-10,14c-0.6,0-1.3,0-1.9,0c-1.5-0.9-2.1-2.1-1.3-3.8c-0.7-3.1-5.6-3.2-5-7.1c0.3-0.9,0.6-1.9,0.8-2.8
	C81,193.7,81.8,192.7,82.7,191.8z"/>
<path class="st69" d="M87.5,208.4c3.3-4.7,6.7-9.3,10-14c7.4,2.6,9.1,6.1,7,14c-0.2,1.6-1,2.9-2.4,3.8c-3.8,1.2-7.7,2.9-10.5-1.7
	C90.3,209.6,88.5,209.8,87.5,208.4z"/>
<path class="st279" d="M102.5,211.4c0-1.5,0.8-2.4,2-3c3.3,0.9,6.4,3.2,10.1,1.2c1.1,2.2,4.1,2.4,4.9,4.8c-3.7,4.7-6.4,10.1-11,14
	c-1-0.6-2-1.3-3-1.9c-0.1-0.1-0.3-0.3-0.2-0.4C106.9,220.8,106,215.8,102.5,211.4z"/>
<path class="st280" d="M62.7,204.6c0.3,1.7-0.5,2.4-1.5,3.7C60.7,206.4,61.3,205.6,62.7,204.6z"/>
<path class="st216" d="M84.3,204.6c0.4,1.3,0.9,2.5,1.3,3.8c-1.5,7.7-0.2,16.3-7.4,22c-1.8-2.5-2.4-5.7-4.7-7.9
	c-0.7-1.3-1.4-2.6-2.1-3.8c3-3.8,6.1-7.5,9.1-11.4C81.6,206,82.3,204.5,84.3,204.6z"/>
<path class="st84" d="M102.5,211.4c6.2,4.9,6.7,7.5,3,15.2c-1.6,0.7-3.3,1.3-4.9,2c-5-0.3-6.8-3.3-7.2-7.9
	c-0.3-3.4-1.2-6.8-1.9-10.2C95,213.5,98.8,211.6,102.5,211.4z"/>
</svg>
